<svg width="29" height="29" viewBox="0 0 29 29" fill="none" xmlns="http://www.w3.org/2000/svg">
<g clip-path="url(#clip0_249_1624)">
<path d="M15.2076 24.3207C14.9101 24.3207 14.6134 24.2472 14.3509 24.1028L13.7699 23.7887C13.7194 23.7613 13.6748 23.7242 13.6387 23.6795C13.6025 23.6349 13.5755 23.5836 13.5591 23.5285C13.5428 23.4734 13.5375 23.4156 13.5435 23.3585C13.5495 23.3013 13.5667 23.2459 13.5941 23.1954C13.6215 23.1449 13.6586 23.1003 13.7032 23.0641C13.7478 23.028 13.7992 23.001 13.8543 22.9846C13.9094 22.9683 13.9671 22.963 14.0243 22.969C14.0814 22.975 14.1368 22.9921 14.1873 23.0196L14.7701 23.3346C14.9766 23.4474 15.2356 23.4754 15.4631 23.4089C15.5504 23.3858 15.6322 23.3456 15.7038 23.2906C15.7755 23.2357 15.8355 23.167 15.8804 23.0887C16.0414 22.7947 15.9837 22.4394 15.8349 22.2662C15.7645 22.1839 15.7271 22.0783 15.73 21.97C15.733 21.8617 15.7759 21.7584 15.8507 21.6799C15.9863 21.5391 16.2156 21.4848 16.3879 21.5758L17.6794 22.2522C18.0749 22.4674 18.5684 22.3406 18.7662 21.9783C18.9202 21.6957 18.8397 21.3404 18.7154 21.1611L17.5202 20.3298C17.4285 20.2656 17.3647 20.1688 17.3419 20.0592C17.3192 19.9496 17.3391 19.8355 17.3977 19.7401C17.4563 19.6445 17.5494 19.5751 17.6578 19.5464C17.7661 19.5178 17.8814 19.532 17.9796 19.5861L20.2537 20.8286C20.3345 20.8737 20.4236 20.902 20.5156 20.9118C20.6077 20.9216 20.7007 20.9126 20.7892 20.8854C20.9957 20.8221 21.1687 20.6796 21.2704 20.4891C21.4804 20.1058 21.3693 19.6841 21.0079 19.4863L19.5572 18.5431C19.4635 18.4822 19.3967 18.3878 19.3704 18.2793C19.344 18.1708 19.3602 18.0563 19.4156 17.9593C19.471 17.8623 19.5614 17.7901 19.6682 17.7576C19.7751 17.7251 19.8903 17.7347 19.9903 17.7844L22.9469 19.2518C23.3223 19.4557 23.7686 19.3078 23.9812 18.9211C24.076 18.7365 24.0952 18.5223 24.0348 18.3239C23.9744 18.1254 23.839 17.9583 23.6574 17.8579C23.6055 17.8313 23.5594 17.7946 23.5218 17.7499C23.4843 17.7051 23.4561 17.6534 23.4389 17.5976C23.4217 17.5418 23.4158 17.4831 23.4216 17.4251C23.4274 17.367 23.4447 17.3106 23.4727 17.2594C23.5006 17.2081 23.5385 17.1629 23.5841 17.1265C23.6297 17.0901 23.6822 17.0632 23.7384 17.0474C23.7946 17.0316 23.8534 17.0272 23.9113 17.0344C23.9692 17.0417 24.0251 17.0605 24.0757 17.0897C24.8684 17.5219 25.1764 18.5527 24.7494 19.3402C24.3014 20.1574 23.3346 20.4602 22.5436 20.0279L22.2356 19.8757C22.2833 20.2325 22.2139 20.5951 22.0378 20.9091C21.8244 21.3029 21.464 21.5963 21.0351 21.7254C20.8361 21.7844 20.6274 21.8034 20.4211 21.7813C20.2147 21.7592 20.0148 21.6965 19.8328 21.5968L19.7191 21.5356C19.7357 21.8217 19.6823 22.1218 19.5318 22.3974C19.1066 23.1753 18.0697 23.4632 17.2647 23.0231L16.8464 22.8043C16.8331 23.0506 16.7653 23.2909 16.6478 23.5078C16.548 23.6872 16.4137 23.8451 16.2525 23.9723C16.0914 24.0995 15.9066 24.1935 15.7089 24.2489C15.5461 24.2967 15.3773 24.3208 15.2076 24.3207ZM6.15744 16.3853C6.08899 16.3854 6.02151 16.3692 5.96056 16.3381L4.50631 15.6048C4.45494 15.5791 4.40916 15.5435 4.37161 15.5C4.33405 15.4565 4.30547 15.406 4.2875 15.3515C4.26952 15.2969 4.26252 15.2393 4.26689 15.182C4.27125 15.1247 4.2869 15.0689 4.31294 15.0177C4.33848 14.9661 4.374 14.9202 4.41746 14.8825C4.46091 14.8448 4.51142 14.8162 4.56605 14.7982C4.62068 14.7802 4.67834 14.7732 4.73568 14.7777C4.79302 14.7822 4.8489 14.798 4.90006 14.8243L6.35431 15.5576C6.44355 15.6008 6.51535 15.6733 6.55784 15.7629C6.60034 15.8525 6.61099 15.9539 6.58804 16.0504C6.56509 16.1469 6.50991 16.2327 6.43162 16.2936C6.35333 16.3545 6.25661 16.3868 6.15744 16.3853ZM9.65044 10.6856C9.62163 10.6856 9.59289 10.6827 9.56469 10.6768L6.59494 10.0897C6.35781 10.0424 6.20381 9.81318 6.25106 9.57605C6.29831 9.33893 6.52844 9.18143 6.76469 9.23218L9.73444 9.8193C9.8423 9.83879 9.93889 9.89812 10.005 9.98553C10.0712 10.0729 10.102 10.182 10.0914 10.2911C10.0808 10.4002 10.0296 10.5013 9.94792 10.5744C9.86622 10.6475 9.76003 10.6872 9.65044 10.6856Z" fill="black"/>
<path d="M23.8545 17.9059C23.781 17.9058 23.7088 17.8872 23.6445 17.8516L20.7771 16.2827L16.8685 13.8572C16.8196 13.8271 16.777 13.7877 16.7433 13.7411C16.7096 13.6946 16.6854 13.6419 16.6721 13.5859C16.6588 13.53 16.6566 13.4721 16.6657 13.4153C16.6747 13.3586 16.6949 13.3042 16.725 13.2552C16.7551 13.2063 16.7946 13.1637 16.8411 13.13C16.8877 13.0963 16.9404 13.0721 16.9963 13.0588C17.0522 13.0455 17.1102 13.0433 17.1669 13.0524C17.2237 13.0615 17.2781 13.0816 17.327 13.1117L21.2164 15.5267L23.6165 16.8392C23.767 16.3151 23.7556 15.9292 23.7548 15.9249C23.7507 15.8369 23.7732 15.7498 23.8194 15.6749C23.8656 15.5999 23.9333 15.5407 24.0138 15.5049L24.9185 15.1024C24.971 15.079 25.0276 15.0663 25.0851 15.0648C25.1425 15.0634 25.1997 15.0732 25.2533 15.0939C25.3069 15.1145 25.356 15.1455 25.3976 15.1851C25.4392 15.2247 25.4727 15.2721 25.496 15.3246C25.5193 15.3771 25.5321 15.4337 25.5335 15.4912C25.535 15.5486 25.5251 15.6058 25.5045 15.6594C25.4839 15.713 25.4529 15.762 25.4133 15.8037C25.3737 15.8453 25.3263 15.8788 25.2738 15.9021L24.6193 16.1935C24.5781 16.6931 24.4555 17.1825 24.2561 17.6425C24.2222 17.7208 24.1661 17.7874 24.0947 17.8342C24.0233 17.881 23.9398 17.9059 23.8545 17.9059Z" fill="black"/>
<path d="M11.4939 15.5719C10.8788 15.5719 10.2855 15.3042 9.80077 14.8028C9.74621 14.7462 9.70786 14.6759 9.68969 14.5995C9.67153 14.523 9.67423 14.443 9.69752 14.3679C9.84627 13.8893 10.0073 13.4422 10.156 13.0283C10.3958 12.3598 10.604 11.7832 10.6661 11.3378C10.6746 11.2769 10.6958 11.2184 10.7284 11.1663C10.7609 11.1141 10.8041 11.0694 10.8551 11.035L11.304 10.7288C12.3164 10.0323 14.0113 8.86503 14.9326 8.48528C15.4839 8.25865 18.3976 8.8204 20.7444 9.33315C20.8064 9.34629 20.8648 9.37321 20.915 9.4119C21.0148 9.48715 21.1066 9.56503 21.1933 9.64465L22.8706 9.18265C22.926 9.16737 22.9839 9.16315 23.0409 9.17022C23.0979 9.1773 23.153 9.19553 23.203 9.22389C23.2529 9.25225 23.2968 9.29017 23.3321 9.33549C23.3674 9.38081 23.3935 9.43264 23.4088 9.48803C23.4241 9.54341 23.4283 9.60126 23.4212 9.65828C23.4141 9.7153 23.3959 9.77037 23.3675 9.82033C23.3392 9.8703 23.3013 9.9142 23.2559 9.94951C23.2106 9.98483 23.1588 10.0109 23.1034 10.0262L21.1863 10.5547C21.1112 10.5756 21.0319 10.5761 20.9566 10.5559C20.8814 10.5357 20.8129 10.4957 20.7584 10.44C20.6639 10.3438 20.5643 10.2526 20.46 10.167C18.192 9.6744 15.6458 9.22465 15.238 9.3034C14.4304 9.63853 12.7189 10.8172 11.7993 11.4498L11.4991 11.6545C11.4038 12.1428 11.2051 12.6958 10.9794 13.3249C10.8621 13.6513 10.737 13.9987 10.6163 14.3662C11.0091 14.6829 11.3871 14.7179 11.6453 14.6882C12.0311 14.6418 12.3899 14.4082 12.5815 14.08C12.732 13.821 12.935 13.3057 13.0741 12.8262C13.0979 12.7446 13.1449 12.6717 13.2094 12.6164C13.2738 12.5611 13.353 12.5257 13.4373 12.5147C13.705 12.4788 14.7699 12.2539 15.3999 12.1043C15.4558 12.091 15.5138 12.0889 15.5705 12.098C15.6272 12.1071 15.6816 12.1274 15.7305 12.1575C15.7794 12.1876 15.8219 12.2271 15.8556 12.2737C15.8892 12.3203 15.9134 12.373 15.9266 12.4289C15.9399 12.4848 15.942 12.5428 15.9329 12.5995C15.9238 12.6562 15.9036 12.7106 15.8734 12.7595C15.8433 12.8084 15.8038 12.8509 15.7572 12.8846C15.7107 12.9182 15.6579 12.9424 15.602 12.9557C15.1234 13.0694 14.3079 13.247 13.8336 13.3354C13.7059 13.7292 13.523 14.2034 13.3384 14.5202C13.1489 14.8407 12.8792 15.1063 12.5557 15.2908C12.2322 15.4752 11.8663 15.5721 11.4939 15.5719ZM12.8475 24.2624C12.459 24.2624 12.095 24.111 11.822 23.8372L11.5368 23.5493C11.403 23.4146 11.2972 23.2548 11.2255 23.0791C11.1537 22.9035 11.1173 22.7153 11.1185 22.5255C11.1194 22.1379 11.2708 21.7757 11.5446 21.5044L12.1213 20.9374C12.6673 20.3967 13.6254 20.401 14.1661 20.9488L14.4496 21.2332C15.0114 21.8019 15.007 22.7198 14.4418 23.2798L13.8651 23.8468C13.5939 24.1137 13.2325 24.2624 12.8475 24.2624ZM13.1389 21.395C12.9882 21.3944 12.8435 21.4535 12.7364 21.5595L12.1606 22.1257C12.1079 22.1784 12.066 22.241 12.0375 22.3099C12.009 22.3788 11.9943 22.4527 11.9944 22.5273C11.9944 22.6813 12.0521 22.8248 12.1589 22.9324L12.4433 23.2194C12.5522 23.3228 12.6966 23.3805 12.8467 23.3809C12.9969 23.3812 13.1415 23.324 13.2509 23.2212L13.8266 22.655C13.9336 22.5479 13.9937 22.4028 13.9939 22.2514C13.994 22.1 13.9342 21.9548 13.8275 21.8474L13.5449 21.5639C13.492 21.51 13.4288 21.4672 13.359 21.4382C13.2893 21.4092 13.2144 21.3945 13.1389 21.395ZM6.79689 19.0177C6.40839 19.0177 6.04352 18.8663 5.77052 18.5915L5.48614 18.3054C5.2165 18.0328 5.06592 17.6644 5.06739 17.2809C5.06887 16.8974 5.22228 16.5302 5.49402 16.2597L6.07064 15.6927C6.61664 15.1528 7.57302 15.1554 8.11464 15.7023L8.39902 15.9893C8.67027 16.2632 8.81814 16.6263 8.81639 17.0139C8.81605 17.2037 8.77815 17.3916 8.70486 17.5667C8.63158 17.7418 8.52436 17.9007 8.38939 18.0342L7.81364 18.6003C7.67996 18.7333 7.52134 18.8387 7.34687 18.9103C7.17239 18.9819 6.98549 19.0184 6.79689 19.0177ZM7.08827 16.1503C6.93738 16.1498 6.79241 16.2089 6.68489 16.3148L6.10914 16.8809C6.00231 16.988 5.94217 17.1331 5.94185 17.2844C5.94152 17.4356 6.00103 17.5809 6.10739 17.6885L6.39089 17.9738C6.4994 18.0778 6.64371 18.1361 6.79401 18.1368C6.9443 18.1374 7.08911 18.0803 7.19852 17.9773L7.77514 17.4103C7.88189 17.3053 7.94052 17.1627 7.94139 17.0095C7.94227 16.8564 7.88452 16.7129 7.77777 16.6053L7.49339 16.3183C7.44055 16.2646 7.37747 16.222 7.30787 16.1932C7.23828 16.1643 7.1636 16.1497 7.08827 16.1503Z" fill="black"/>
<path d="M8.30021 21.3046C7.91084 21.3046 7.54596 21.1533 7.27384 20.8768L6.98946 20.5906C6.85554 20.4566 6.74954 20.2973 6.67759 20.1221C6.60565 19.9468 6.56919 19.759 6.57034 19.5695C6.57025 19.3792 6.60804 19.1907 6.68149 19.0151C6.75495 18.8395 6.86262 18.6802 6.99821 18.5466L8.14359 17.41C8.69046 16.8675 9.64509 16.8719 10.1885 17.4188L10.4728 17.7066C10.7441 17.9796 10.892 18.3428 10.8902 18.7295C10.8902 18.9196 10.8524 19.1078 10.7789 19.2831C10.7055 19.4584 10.5978 19.6173 10.4623 19.7506L9.31784 20.8855C9.04659 21.1559 8.68434 21.3046 8.30021 21.3046ZM9.16121 17.8668C9.08671 17.8662 9.01285 17.8805 8.9439 17.9087C8.87496 17.937 8.81231 17.9786 8.75959 18.0313L7.61421 19.1679C7.56088 19.2204 7.51845 19.283 7.48936 19.352C7.46026 19.421 7.44507 19.495 7.44467 19.5699C7.44426 19.6448 7.45864 19.719 7.48699 19.7883C7.51533 19.8576 7.55708 19.9206 7.60984 19.9738L7.89509 20.2608C8.00355 20.3645 8.14768 20.4227 8.29777 20.4234C8.44786 20.424 8.59248 20.3671 8.70184 20.2643L9.84721 19.1285C9.90074 19.0759 9.94319 19.0131 9.97204 18.9438C10.0009 18.8746 10.0156 18.8002 10.0152 18.7251C10.0162 18.6505 10.0022 18.5765 9.9741 18.5073C9.946 18.4382 9.90434 18.3754 9.85159 18.3226L9.56721 18.0348C9.51397 17.9814 9.45069 17.939 9.38101 17.9102C9.31133 17.8813 9.23663 17.8666 9.16121 17.8668Z" fill="black"/>
<path d="M10.5741 22.7837C10.383 22.7843 10.1937 22.7468 10.0173 22.6734C9.84095 22.5999 9.681 22.4919 9.54689 22.3558L9.26338 22.0688C9.12947 21.9346 9.02349 21.7752 8.95155 21.5997C8.87961 21.4243 8.84314 21.2364 8.84426 21.0468C8.84514 20.6592 8.99651 20.2969 9.27038 20.0257L10.1323 19.1743C10.6791 18.6327 11.6355 18.637 12.1771 19.1848L12.4606 19.4709C13.0206 20.0362 13.0163 20.9532 12.4528 21.5149L11.5918 22.3663C11.3205 22.6349 10.9591 22.7837 10.5741 22.7837ZM11.1499 19.631C11.0754 19.6307 11.0016 19.6451 10.9327 19.6733C10.8638 19.7015 10.8011 19.7431 10.7483 19.7955L9.88638 20.6469C9.77876 20.7537 9.72014 20.8963 9.71926 21.0494C9.71839 21.2025 9.77701 21.3452 9.88376 21.4519L10.169 21.7398C10.2774 21.8437 10.4214 21.902 10.5715 21.9028C10.7216 21.9036 10.8663 21.8469 10.9758 21.7442L11.8368 20.8928C11.9437 20.7858 12.004 20.6408 12.0045 20.4895C12.005 20.3382 11.9456 20.1929 11.8394 20.0852L11.5559 19.799C11.5029 19.7453 11.4396 19.7028 11.3699 19.6739C11.3002 19.6451 11.2254 19.6305 11.1499 19.631ZM25.646 17.412C25.5554 17.4119 25.4671 17.3836 25.3933 17.3311C25.3195 17.2786 25.2638 17.2044 25.2339 17.1189L22.4094 9.05055C22.3722 8.94423 22.3775 8.82769 22.4241 8.72518C22.4708 8.62266 22.5551 8.54207 22.6596 8.50017L27.4126 6.5953C27.5197 6.55493 27.6384 6.55813 27.7432 6.60423C27.8479 6.65033 27.9304 6.73565 27.973 6.84189C28.0156 6.94813 28.0149 7.06683 27.971 7.17253C27.9271 7.27823 27.8435 7.36251 27.7381 7.4073L23.3728 9.15642L25.9103 16.4067L27.5001 15.8073C27.5539 15.7871 27.6111 15.7776 27.6686 15.7795C27.726 15.7814 27.7825 15.7946 27.8348 15.8183C27.8871 15.8421 27.9343 15.8759 27.9735 15.9178C28.0128 15.9598 28.0434 16.009 28.0636 16.0628C28.0839 16.1166 28.0933 16.1738 28.0914 16.2312C28.0895 16.2886 28.0763 16.3451 28.0526 16.3975C28.0289 16.4498 27.9951 16.4969 27.9531 16.5362C27.9112 16.5755 27.8619 16.6061 27.8081 16.6263L25.7991 17.3832C25.7504 17.4024 25.6984 17.4122 25.646 17.412ZM3.93551 17.384C3.8882 17.3842 3.84119 17.3765 3.79638 17.3613L2.06651 16.782C2.01135 16.7643 1.96025 16.7359 1.91618 16.6982C1.87211 16.6606 1.83595 16.6146 1.8098 16.5629C1.78365 16.5113 1.76803 16.4549 1.76384 16.3971C1.75965 16.3393 1.76698 16.2813 1.78541 16.2263C1.80383 16.1714 1.83299 16.1207 1.87117 16.0771C1.90936 16.0335 1.95582 15.998 2.00785 15.9725C2.05989 15.947 2.11647 15.9322 2.1743 15.9287C2.23214 15.9253 2.29008 15.9334 2.34476 15.9525L3.66514 16.3944L6.21138 9.12142L2.09189 7.38542C2.03699 7.36452 1.98687 7.33277 1.94451 7.29209C1.90215 7.2514 1.86842 7.20259 1.84532 7.14859C1.82223 7.09458 1.81024 7.03648 1.81008 6.97774C1.80992 6.91901 1.8216 6.86084 1.8444 6.80671C1.8672 6.75258 1.90067 6.7036 1.94281 6.66268C1.98495 6.62176 2.0349 6.58975 2.08968 6.56855C2.14446 6.54735 2.20294 6.5374 2.26165 6.53929C2.32036 6.54118 2.37808 6.55487 2.43139 6.57955L6.92888 8.47567C7.03139 8.51903 7.11356 8.59976 7.15874 8.70148C7.20391 8.8032 7.2087 8.9183 7.17213 9.02342L4.34764 17.0918C4.31771 17.1772 4.26197 17.2512 4.18814 17.3036C4.1143 17.3559 4.02602 17.3841 3.93551 17.384Z" fill="black"/>
</g>
<defs>
<clipPath id="clip0_249_1624">
<rect width="28" height="28" fill="white" transform="translate(0.900391 0.402344)"/>
</clipPath>
</defs>
</svg>
