<svg width="32" height="32" viewBox="0 0 32 32" fill="none" xmlns="http://www.w3.org/2000/svg">
<path d="M19 18C19.1326 18 19.2598 17.9473 19.3536 17.8536C19.4473 17.7598 19.5 17.6326 19.5 17.5V15.5C19.5 15.3674 19.4473 15.2402 19.3536 15.1464C19.2598 15.0527 19.1326 15 19 15C18.8674 15 18.7402 15.0527 18.6464 15.1464C18.5527 15.2402 18.5 15.3674 18.5 15.5V17.5C18.5 17.6326 18.5527 17.7598 18.6464 17.8536C18.7402 17.9473 18.8674 18 19 18ZM13 18C13.1326 18 13.2598 17.9473 13.3536 17.8536C13.4473 17.7598 13.5 17.6326 13.5 17.5V15.5C13.5 15.3674 13.4473 15.2402 13.3536 15.1464C13.2598 15.0527 13.1326 15 13 15C12.8674 15 12.7402 15.0527 12.6464 15.1464C12.5527 15.2402 12.5 15.3674 12.5 15.5V17.5C12.5 17.6326 12.5527 17.7598 12.6464 17.8536C12.7402 17.9473 12.8674 18 13 18Z" fill="#0B243F"/>
<path d="M13 18H19C19.1326 18 19.2598 17.9473 19.3536 17.8536C19.4473 17.7598 19.5 17.6326 19.5 17.5C19.5 17.3674 19.4473 17.2402 19.3536 17.1464C19.2598 17.0527 19.1326 17 19 17H13C12.8674 17 12.7402 17.0527 12.6464 17.1464C12.5527 17.2402 12.5 17.3674 12.5 17.5C12.5 17.6326 12.5527 17.7598 12.6464 17.8536C12.7402 17.9473 12.8674 18 13 18ZM20 9C20.1326 9 20.2598 8.94732 20.3536 8.85355C20.4473 8.75979 20.5 8.63261 20.5 8.5C20.5 7.1215 19.3785 6 18 6C17.8674 6 17.7402 6.05268 17.6464 6.14645C17.5527 6.24021 17.5 6.36739 17.5 6.5C17.5 6.63261 17.5527 6.75979 17.6464 6.85355C17.7402 6.94732 17.8674 7 18 7C18.827 7 19.5 7.673 19.5 8.5C19.5 8.63261 19.5527 8.75979 19.6464 8.85355C19.7402 8.94732 19.8674 9 20 9Z" fill="#0B243F"/>
<path d="M20 10C20.1326 10 20.2598 9.94732 20.3536 9.85355C20.4473 9.75979 20.5 9.63261 20.5 9.5V8.5C20.5 8.36739 20.4473 8.24021 20.3536 8.14645C20.2598 8.05268 20.1326 8 20 8C19.8674 8 19.7402 8.05268 19.6464 8.14645C19.5527 8.24021 19.5 8.36739 19.5 8.5V9.5C19.5 9.63261 19.5527 9.75979 19.6464 9.85355C19.7402 9.94732 19.8674 10 20 10ZM14 7H18C18.1326 7 18.2598 6.94732 18.3536 6.85355C18.4473 6.75979 18.5 6.63261 18.5 6.5C18.5 6.36739 18.4473 6.24021 18.3536 6.14645C18.2598 6.05268 18.1326 6 18 6H14C13.8674 6 13.7402 6.05268 13.6464 6.14645C13.5527 6.24021 13.5 6.36739 13.5 6.5C13.5 6.63261 13.5527 6.75979 13.6464 6.85355C13.7402 6.94732 13.8674 7 14 7Z" fill="#0B243F"/>
<path d="M12 9C12.1326 9 12.2598 8.94732 12.3536 8.85355C12.4473 8.75979 12.5 8.63261 12.5 8.5C12.5 7.673 13.173 7 14 7C14.1326 7 14.2598 6.94732 14.3536 6.85355C14.4473 6.75979 14.5 6.63261 14.5 6.5C14.5 6.36739 14.4473 6.24021 14.3536 6.14645C14.2598 6.05268 14.1326 6 14 6C12.6215 6 11.5 7.1215 11.5 8.5C11.5 8.63261 11.5527 8.75979 11.6464 8.85355C11.7402 8.94732 11.8674 9 12 9Z" fill="#0B243F"/>
<path d="M12 10C12.1326 10 12.2598 9.94732 12.3536 9.85355C12.4473 9.75979 12.5 9.63261 12.5 9.5V8.5C12.5 8.36739 12.4473 8.24021 12.3536 8.14645C12.2598 8.05268 12.1326 8 12 8C11.8674 8 11.7402 8.05268 11.6464 8.14645C11.5527 8.24021 11.5 8.36739 11.5 8.5V9.5C11.5 9.63261 11.5527 9.75979 11.6464 9.85355C11.7402 9.94732 11.8674 10 12 10ZM6 16C6.13261 16 6.25979 15.9473 6.35355 15.8536C6.44732 15.7598 6.5 15.6326 6.5 15.5V11.5C6.5 11.3674 6.44732 11.2402 6.35355 11.1464C6.25979 11.0527 6.13261 11 6 11C5.86739 11 5.74021 11.0527 5.64645 11.1464C5.55268 11.2402 5.5 11.3674 5.5 11.5V15.5C5.5 15.6326 5.55268 15.7598 5.64645 15.8536C5.74021 15.9473 5.86739 16 6 16Z" fill="#0B243F"/>
<path d="M6 16H26C26.1326 16 26.2598 15.9473 26.3536 15.8536C26.4473 15.7598 26.5 15.6326 26.5 15.5C26.5 15.3674 26.4473 15.2402 26.3536 15.1464C26.2598 15.0527 26.1326 15 26 15H6C5.86739 15 5.74022 15.0527 5.64645 15.1464C5.55268 15.2402 5.5 15.3674 5.5 15.5C5.5 15.6326 5.55268 15.7598 5.64645 15.8536C5.74022 15.9473 5.86739 16 6 16Z" fill="#0B243F"/>
<path d="M26 16C26.1326 16 26.2598 15.9473 26.3536 15.8536C26.4473 15.7598 26.5 15.6326 26.5 15.5V11.5C26.5 11.3674 26.4473 11.2402 26.3536 11.1464C26.2598 11.0527 26.1326 11 26 11C25.8674 11 25.7402 11.0527 25.6464 11.1464C25.5527 11.2402 25.5 11.3674 25.5 11.5V15.5C25.5 15.6326 25.5527 15.7598 25.6464 15.8536C25.7402 15.9473 25.8674 16 26 16ZM23 26C24.3785 26 25.5 24.8785 25.5 23.5C25.5 23.3674 25.4473 23.2402 25.3536 23.1464C25.2598 23.0527 25.1326 23 25 23C24.8674 23 24.7402 23.0527 24.6464 23.1464C24.5527 23.2402 24.5 23.3674 24.5 23.5C24.5 24.327 23.827 25 23 25C22.8674 25 22.7402 25.0527 22.6464 25.1464C22.5527 25.2402 22.5 25.3674 22.5 25.5C22.5 25.6326 22.5527 25.7598 22.6464 25.8536C22.7402 25.9473 22.8674 26 23 26Z" fill="#0B243F"/>
<path d="M25 24C25.1326 24 25.2598 23.9473 25.3536 23.8536C25.4473 23.7598 25.5 23.6326 25.5 23.5V15.5C25.5 15.3674 25.4473 15.2402 25.3536 15.1464C25.2598 15.0527 25.1326 15 25 15C24.8674 15 24.7402 15.0527 24.6464 15.1464C24.5527 15.2402 24.5 15.3674 24.5 15.5V23.5C24.5 23.6326 24.5527 23.7598 24.6464 23.8536C24.7402 23.9473 24.8674 24 25 24ZM9 26H23C23.1326 26 23.2598 25.9473 23.3536 25.8536C23.4473 25.7598 23.5 25.6326 23.5 25.5C23.5 25.3674 23.4473 25.2402 23.3536 25.1464C23.2598 25.0527 23.1326 25 23 25H9C8.86739 25 8.74022 25.0527 8.64645 25.1464C8.55268 25.2402 8.5 25.3674 8.5 25.5C8.5 25.6326 8.55268 25.7598 8.64645 25.8536C8.74022 25.9473 8.86739 26 9 26Z" fill="#0B243F"/>
<path d="M9 26C9.13261 26 9.25979 25.9473 9.35355 25.8536C9.44732 25.7598 9.5 25.6326 9.5 25.5C9.5 25.3674 9.44732 25.2402 9.35355 25.1464C9.25979 25.0527 9.13261 25 9 25C8.173 25 7.5 24.327 7.5 23.5C7.5 23.3674 7.44732 23.2402 7.35355 23.1464C7.25979 23.0527 7.13261 23 7 23C6.86739 23 6.74021 23.0527 6.64645 23.1464C6.55268 23.2402 6.5 23.3674 6.5 23.5C6.5 24.8785 7.6215 26 9 26Z" fill="#0B243F"/>
<path d="M7 24C7.13261 24 7.25979 23.9473 7.35355 23.8536C7.44732 23.7598 7.5 23.6326 7.5 23.5V15.5C7.5 15.3674 7.44732 15.2402 7.35355 15.1464C7.25979 15.0527 7.13261 15 7 15C6.86739 15 6.74021 15.0527 6.64645 15.1464C6.55268 15.2402 6.5 15.3674 6.5 15.5V23.5C6.5 23.6326 6.55268 23.7598 6.64645 23.8536C6.74021 23.9473 6.86739 24 7 24ZM6 12C6.13261 12 6.25979 11.9473 6.35355 11.8536C6.44732 11.7598 6.5 11.6326 6.5 11.5C6.5 10.673 7.173 10 8 10C8.13261 10 8.25979 9.94732 8.35355 9.85355C8.44732 9.75979 8.5 9.63261 8.5 9.5C8.5 9.36739 8.44732 9.24021 8.35355 9.14645C8.25979 9.05268 8.13261 9 8 9C6.6215 9 5.5 10.1215 5.5 11.5C5.5 11.6326 5.55268 11.7598 5.64645 11.8536C5.74021 11.9473 5.86739 12 6 12Z" fill="#0B243F"/>
<path d="M8 10H24C24.1326 10 24.2598 9.94732 24.3536 9.85355C24.4473 9.75979 24.5 9.63261 24.5 9.5C24.5 9.36739 24.4473 9.24021 24.3536 9.14645C24.2598 9.05268 24.1326 9 24 9H8C7.86739 9 7.74022 9.05268 7.64645 9.14645C7.55268 9.24021 7.5 9.36739 7.5 9.5C7.5 9.63261 7.55268 9.75979 7.64645 9.85355C7.74022 9.94732 7.86739 10 8 10Z" fill="#0B243F"/>
<path d="M26 12C26.1326 12 26.2598 11.9473 26.3536 11.8536C26.4473 11.7598 26.5 11.6326 26.5 11.5C26.5 10.1215 25.3785 9 24 9C23.8674 9 23.7402 9.05268 23.6464 9.14645C23.5527 9.24021 23.5 9.36739 23.5 9.5C23.5 9.63261 23.5527 9.75979 23.6464 9.85355C23.7402 9.94732 23.8674 10 24 10C24.827 10 25.5 10.673 25.5 11.5C25.5 11.6326 25.5527 11.7598 25.6464 11.8536C25.7402 11.9473 25.8674 12 26 12Z" fill="#0B243F"/>
</svg>
