<svg width="16" height="16" viewBox="0 0 16 16" fill="none" xmlns="http://www.w3.org/2000/svg">
<path d="M5.1499 9.41194L7.38074 7.73881V4.33062C7.38074 3.98794 7.65774 3.71094 8.00043 3.71094C8.34312 3.71094 8.62012 3.98794 8.62012 4.33062V8.04869C8.62012 8.24388 8.5284 8.42794 8.37224 8.54444L5.89355 10.4035C5.78658 10.484 5.65628 10.5275 5.52237 10.5274C5.33337 10.5274 5.14746 10.4425 5.02599 10.2789C4.82021 10.0056 4.87599 9.61706 5.1499 9.41194Z" fill="#97A1AC"/>
<path d="M8 0C12.4115 0 16 3.58853 16 8C16 12.4115 12.4115 16 8 16C3.58853 16 0 12.4115 0 8C0 3.58853 3.58853 0 8 0ZM8 14.7607C11.7273 14.7607 14.7607 11.7273 14.7607 8C14.7607 4.27266 11.7273 1.23934 8 1.23934C4.27203 1.23934 1.23934 4.27266 1.23934 8C1.23934 11.7273 4.27266 14.7607 8 14.7607Z" fill="#97A1AC"/>
</svg>
