<svg width="28" height="28" viewBox="0 0 28 28" fill="none" xmlns="http://www.w3.org/2000/svg">
<path fill-rule="evenodd" clip-rule="evenodd" d="M11.2092 8.11431C10.5472 7.95463 9.8685 7.87429 9.1875 7.875C4.83 7.875 1.3125 11.1055 1.3125 15.0574C1.3125 17.0183 2.19012 18.8891 3.73581 20.2409L3.73931 20.2444C3.7944 20.2913 3.83679 20.3513 3.86256 20.4189C3.88833 20.4865 3.89665 20.5595 3.88675 20.6312L3.88631 20.6343C3.77606 21.4751 3.54769 23.1276 3.54769 23.1276C3.53628 23.2114 3.54937 23.2967 3.58539 23.3732C3.6214 23.4497 3.6788 23.5141 3.75066 23.5587C3.82251 23.6033 3.90573 23.6262 3.99029 23.6245C4.07484 23.6228 4.15709 23.5967 4.22712 23.5493L6.5275 21.9857C6.63513 21.9126 6.769 21.8912 6.89369 21.9266L6.89587 21.9275C7.63744 22.1349 8.41006 22.2399 9.1875 22.2399C11.8829 22.2399 14.2607 21.0018 15.6778 19.1249C16.5231 19.3896 17.4304 19.5331 18.375 19.5331C19.2036 19.5331 20.027 19.4202 20.8167 19.1975L20.8193 19.1971C20.881 19.1792 20.9459 19.1751 21.0093 19.1852C21.0728 19.1952 21.1332 19.2191 21.1864 19.2553L23.6416 20.9243C23.7116 20.9719 23.7939 20.9982 23.8786 21C23.9632 21.0017 24.0465 20.9789 24.1184 20.9343C24.1904 20.8896 24.2478 20.8251 24.2837 20.7485C24.3197 20.6718 24.3327 20.5864 24.3211 20.5026C24.3211 20.5026 24.0739 18.7171 23.9579 17.8356V17.8329C23.9479 17.761 23.9561 17.6876 23.982 17.6197C24.0078 17.5518 24.0504 17.4915 24.1058 17.4444L24.1098 17.4414C25.7534 16.0134 26.6875 14.0319 26.6875 11.9542C26.6875 7.78356 22.974 4.375 18.375 4.375C15.3186 4.375 12.6529 5.88044 11.2092 8.11431ZM10.7616 8.91056C10.2438 8.80345 9.71631 8.74965 9.1875 8.75C5.33531 8.75 2.1875 11.564 2.1875 15.0574C2.1875 16.7703 2.96144 18.4004 4.31069 19.5816C4.47614 19.7235 4.6034 19.9046 4.68082 20.1084C4.75824 20.3121 4.78335 20.532 4.75388 20.748C4.70006 21.1584 4.61825 21.7617 4.54869 22.2727L6.03619 21.2616C6.19476 21.1539 6.37504 21.0822 6.56432 21.0516C6.7536 21.0211 6.94727 21.0325 7.13169 21.0849C7.79713 21.2708 8.49013 21.3649 9.1875 21.3649C11.4905 21.3649 13.538 20.3608 14.8164 18.8046C12.0033 17.5857 10.0625 14.9691 10.0625 11.9542C10.0625 10.8732 10.3119 9.84331 10.7616 8.91056ZM10.9375 11.9542C10.9375 8.24162 14.2813 5.25 18.375 5.25C22.4687 5.25 25.8125 8.24162 25.8125 11.9542C25.8125 13.783 24.983 15.5234 23.5366 16.7803C23.37 16.9227 23.2418 17.1047 23.1639 17.3096C23.086 17.5145 23.0609 17.7357 23.0908 17.9528C23.1499 18.3995 23.2431 19.0837 23.3201 19.6477L21.6777 18.5312C21.5183 18.4231 21.337 18.3513 21.1468 18.3211C20.9566 18.2908 20.762 18.3028 20.5769 18.3562C19.8603 18.5572 19.1193 18.6588 18.375 18.6581C14.2813 18.6581 10.9375 15.6664 10.9375 11.9542ZM10.0625 17.5H6.125C6.00897 17.5 5.89769 17.5461 5.81564 17.6281C5.73359 17.7102 5.6875 17.8215 5.6875 17.9375C5.6875 18.0535 5.73359 18.1648 5.81564 18.2469C5.89769 18.3289 6.00897 18.375 6.125 18.375H10.0625C10.1785 18.375 10.2898 18.3289 10.3719 18.2469C10.4539 18.1648 10.5 18.0535 10.5 17.9375C10.5 17.8215 10.4539 17.7102 10.3719 17.6281C10.2898 17.5461 10.1785 17.5 10.0625 17.5ZM9.1875 14.875H6.125C6.00897 14.875 5.89769 14.9211 5.81564 15.0031C5.73359 15.0852 5.6875 15.1965 5.6875 15.3125C5.6875 15.4285 5.73359 15.5398 5.81564 15.6219C5.89769 15.7039 6.00897 15.75 6.125 15.75H9.1875C9.30353 15.75 9.41481 15.7039 9.49686 15.6219C9.57891 15.5398 9.625 15.4285 9.625 15.3125C9.625 15.1965 9.57891 15.0852 9.49686 15.0031C9.41481 14.9211 9.30353 14.875 9.1875 14.875ZM21.875 10.9375C21.5328 10.9463 21.2075 11.0885 20.9686 11.3337C20.7297 11.5789 20.596 11.9077 20.596 12.25C20.596 12.5923 20.7297 12.9211 20.9686 13.1663C21.2075 13.4115 21.5328 13.5537 21.875 13.5625C22.2172 13.5537 22.5425 13.4115 22.7814 13.1663C23.0203 12.9211 23.154 12.5923 23.154 12.25C23.154 11.9077 23.0203 11.5789 22.7814 11.3337C22.5425 11.0885 22.2172 10.9463 21.875 10.9375ZM18.375 10.9375C18.0328 10.9463 17.7075 11.0885 17.4686 11.3337C17.2297 11.5789 17.096 11.9077 17.096 12.25C17.096 12.5923 17.2297 12.9211 17.4686 13.1663C17.7075 13.4115 18.0328 13.5537 18.375 13.5625C18.7172 13.5537 19.0425 13.4115 19.2814 13.1663C19.5203 12.9211 19.654 12.5923 19.654 12.25C19.654 11.9077 19.5203 11.5789 19.2814 11.3337C19.0425 11.0885 18.7172 10.9463 18.375 10.9375ZM14.875 10.9375C14.5328 10.9463 14.2075 11.0885 13.9686 11.3337C13.7297 11.5789 13.596 11.9077 13.596 12.25C13.596 12.5923 13.7297 12.9211 13.9686 13.1663C14.2075 13.4115 14.5328 13.5537 14.875 13.5625C15.2172 13.5537 15.5425 13.4115 15.7814 13.1663C16.0203 12.9211 16.154 12.5923 16.154 12.25C16.154 11.9077 16.0203 11.5789 15.7814 11.3337C15.5425 11.0885 15.2172 10.9463 14.875 10.9375ZM8.75 12.25H6.125C6.00897 12.25 5.89769 12.2961 5.81564 12.3781C5.73359 12.4602 5.6875 12.5715 5.6875 12.6875C5.6875 12.8035 5.73359 12.9148 5.81564 12.9969C5.89769 13.0789 6.00897 13.125 6.125 13.125H8.75C8.86603 13.125 8.97731 13.0789 9.05936 12.9969C9.14141 12.9148 9.1875 12.8035 9.1875 12.6875C9.1875 12.5715 9.14141 12.4602 9.05936 12.3781C8.97731 12.2961 8.86603 12.25 8.75 12.25ZM21.875 11.8125C21.991 11.8125 22.1023 11.8586 22.1844 11.9406C22.2664 12.0227 22.3125 12.134 22.3125 12.25C22.3125 12.366 22.2664 12.4773 22.1844 12.5594C22.1023 12.6414 21.991 12.6875 21.875 12.6875C21.759 12.6875 21.6477 12.6414 21.5656 12.5594C21.4836 12.4773 21.4375 12.366 21.4375 12.25C21.4375 12.134 21.4836 12.0227 21.5656 11.9406C21.6477 11.8586 21.759 11.8125 21.875 11.8125ZM18.375 11.8125C18.491 11.8125 18.6023 11.8586 18.6844 11.9406C18.7664 12.0227 18.8125 12.134 18.8125 12.25C18.8125 12.366 18.7664 12.4773 18.6844 12.5594C18.6023 12.6414 18.491 12.6875 18.375 12.6875C18.259 12.6875 18.1477 12.6414 18.0656 12.5594C17.9836 12.4773 17.9375 12.366 17.9375 12.25C17.9375 12.134 17.9836 12.0227 18.0656 11.9406C18.1477 11.8586 18.259 11.8125 18.375 11.8125ZM14.875 11.8125C14.991 11.8125 15.1023 11.8586 15.1844 11.9406C15.2664 12.0227 15.3125 12.134 15.3125 12.25C15.3125 12.366 15.2664 12.4773 15.1844 12.5594C15.1023 12.6414 14.991 12.6875 14.875 12.6875C14.759 12.6875 14.6477 12.6414 14.5656 12.5594C14.4836 12.4773 14.4375 12.366 14.4375 12.25C14.4375 12.134 14.4836 12.0227 14.5656 11.9406C14.6477 11.8586 14.759 11.8125 14.875 11.8125Z" fill="#0B243F"/>
</svg>
