<svg width="25" height="25" viewBox="0 0 25 25" fill="none" xmlns="http://www.w3.org/2000/svg">
<path d="M13.6504 10.7774C13.6504 10.5784 13.5714 10.3877 13.4307 10.247C13.2901 10.1064 13.0993 10.0274 12.9004 10.0274C12.7015 10.0274 12.5107 10.1064 12.3701 10.247C12.2294 10.3877 12.1504 10.5784 12.1504 10.7774H13.6504ZM12.1504 21.8604C12.1504 22.0593 12.2294 22.25 12.3701 22.3907C12.5107 22.5313 12.7015 22.6104 12.9004 22.6104C13.0993 22.6104 13.2901 22.5313 13.4307 22.3907C13.5714 22.25 13.6504 22.0593 13.6504 21.8604H12.1504ZM10.5244 5.28835C10.3571 5.39035 10.2364 5.55375 10.188 5.74361C10.1397 5.93347 10.1676 6.13472 10.2657 6.3043C10.3638 6.47388 10.5244 6.59833 10.7131 6.65104C10.9018 6.70375 11.1036 6.68053 11.2754 6.58635L10.5244 5.28835ZM14.5244 6.58635C14.6097 6.63839 14.7046 6.67284 14.8034 6.68769C14.9023 6.70253 15.0031 6.69748 15.0999 6.67281C15.1968 6.64815 15.2877 6.60437 15.3674 6.54406C15.4471 6.48375 15.514 6.40812 15.564 6.32161C15.6141 6.2351 15.6463 6.13946 15.6589 6.0403C15.6715 5.94115 15.6641 5.84049 15.6372 5.74423C15.6103 5.64797 15.5644 5.55805 15.5023 5.47976C15.4402 5.40148 15.363 5.3364 15.2754 5.28835L14.5244 6.58635ZM8.47139 3.04235C8.38841 3.09776 8.31731 3.16916 8.26227 3.25239C8.20723 3.33561 8.16935 3.42898 8.15085 3.52703C8.13235 3.62508 8.1336 3.72583 8.15452 3.82339C8.17545 3.92095 8.21563 4.01336 8.27272 4.09519C8.3298 4.17703 8.40264 4.24665 8.48697 4.29998C8.5713 4.35331 8.66543 4.38928 8.76383 4.40578C8.86224 4.42228 8.96295 4.41898 9.06006 4.39606C9.15717 4.37315 9.24874 4.33109 9.32939 4.27235L8.47139 3.04235ZM16.4714 4.27235C16.6346 4.38133 16.8341 4.42199 17.0269 4.38559C17.2198 4.3492 17.3907 4.23866 17.503 4.07769C17.6153 3.91672 17.66 3.71815 17.6275 3.52459C17.5951 3.33103 17.488 3.1579 17.3294 3.04235L16.4714 4.27235ZM12.1504 10.7774V21.8604H13.6504V10.7774H12.1504ZM6.41439 9.15735C8.14839 9.34735 10.3854 9.85435 11.9314 10.9074L12.7764 9.66835C10.9244 8.40835 8.39239 7.86535 6.57739 7.66535L6.41439 9.15735ZM6.41439 21.1044C8.14839 21.2944 10.3854 21.8024 11.9314 22.8554L12.7764 21.6154C10.9244 20.3544 8.39239 19.8124 6.57739 19.6134L6.41439 21.1044ZM4.15039 9.90735V18.6694H5.65039V9.90735H4.15039ZM6.57739 19.6134C6.03139 19.5534 5.65039 19.1194 5.65039 18.6694H4.15039C4.15039 19.9784 5.20339 20.9714 6.41439 21.1044L6.57739 19.6134ZM6.57739 7.66535C5.20839 7.51535 4.15039 8.62935 4.15039 9.90735H5.65039C5.65039 9.42635 6.02639 9.11435 6.41439 9.15735L6.57739 7.66535ZM19.2234 7.66535C17.4084 7.86535 14.8764 8.40635 13.0244 9.66835L13.8694 10.9084C15.4154 9.85435 17.6524 9.34735 19.3864 9.15635L19.2234 7.66535ZM19.2234 19.6134C17.4084 19.8134 14.8764 20.3534 13.0244 21.6154L13.8694 22.8554C15.4154 21.8024 17.6524 21.2954 19.3864 21.1044L19.2234 19.6134ZM20.1504 9.90735V18.6694H21.6504V9.90735H20.1504ZM19.3864 21.1044C20.5964 20.9714 21.6504 19.9784 21.6504 18.6694H20.1504C20.1504 19.1194 19.7704 19.5534 19.2234 19.6134L19.3864 21.1044ZM19.3864 9.15635C19.7744 9.11435 20.1504 9.42635 20.1504 9.90735H21.6504C21.6504 8.62935 20.5924 7.51535 19.2234 7.66535L19.3864 9.15635ZM11.9314 22.8554C12.2175 23.0489 12.555 23.1524 12.9004 23.1524C13.2458 23.1524 13.5833 23.0489 13.8694 22.8554L13.0244 21.6154C12.9874 21.6392 12.9444 21.6518 12.9004 21.6518C12.8564 21.6518 12.8134 21.6392 12.7764 21.6154L11.9314 22.8554ZM11.9314 10.9074C12.2175 11.1009 12.555 11.2054 12.9004 11.2054C13.2458 11.2054 13.5833 11.1019 13.8694 10.9084L13.0244 9.66835C12.9874 9.69217 12.9444 9.70483 12.9004 9.70483C12.8564 9.70483 12.8134 9.69217 12.7764 9.66835L11.9314 10.9074ZM11.2754 6.58635C11.7693 6.30081 12.3299 6.15107 12.9004 6.15235V4.65235C12.0364 4.65235 11.2244 4.88335 10.5244 5.28835L11.2754 6.58635ZM12.9004 6.15235C13.4934 6.15235 14.0474 6.31035 14.5254 6.58635L15.2754 5.28835C14.5536 4.87079 13.7343 4.65139 12.9004 4.65235V6.15235ZM9.33039 4.27235C10.3772 3.54135 11.6236 3.15031 12.9004 3.15235V1.65235C11.3161 1.65001 9.77039 2.13531 8.47139 3.04235L9.33039 4.27235ZM12.9004 3.15235C14.2294 3.15235 15.4594 3.56635 16.4704 4.27235L17.3294 3.04235C16.0304 2.13531 14.4847 1.65001 12.9004 1.65235V3.15235Z" fill="#28303F"/>
</svg>
