<svg width="22" height="21" viewBox="0 0 22 21" fill="none" xmlns="http://www.w3.org/2000/svg">
<path d="M3.81821 14.3043C3.68226 14.3043 3.54937 14.2658 3.43634 14.1937C3.3233 14.1215 3.23521 14.0191 3.18318 13.8992C3.13116 13.7793 3.11755 13.6473 3.14406 13.5201C3.17058 13.3928 3.23603 13.2759 3.33215 13.1841L14.0757 2.92886C14.1391 2.86618 14.215 2.81619 14.2989 2.78179C14.3828 2.7474 14.473 2.7293 14.5643 2.72854C14.6555 2.72778 14.7461 2.74439 14.8306 2.77738C14.915 2.81038 14.9918 2.85911 15.0564 2.92073C15.1209 2.98234 15.172 3.05562 15.2065 3.13627C15.2411 3.21692 15.2585 3.30333 15.2577 3.39047C15.2569 3.4776 15.2379 3.56372 15.2019 3.64378C15.1659 3.72385 15.1135 3.79626 15.0478 3.8568L4.30428 14.112C4.17021 14.24 3.99421 14.3043 3.81821 14.3043Z" fill="#0B243F"/>
<path d="M2.75641 19.0308C2.65382 19.0308 2.55252 19.009 2.45992 18.9669C2.36733 18.9247 2.28579 18.8633 2.22128 18.7872C2.15678 18.711 2.11094 18.6221 2.08713 18.5268C2.06332 18.4316 2.06215 18.3324 2.08369 18.2367L3.14588 13.5107C3.16457 13.4262 3.20056 13.3461 3.25176 13.2749C3.30297 13.2037 3.36839 13.1429 3.44427 13.0959C3.52016 13.0489 3.60502 13.0166 3.69399 13.001C3.78296 12.9853 3.87428 12.9866 3.96274 13.0047C4.05119 13.0228 4.13503 13.0574 4.20945 13.1065C4.28387 13.1556 4.3474 13.2183 4.39641 13.2908C4.44542 13.3634 4.47894 13.4445 4.49505 13.5295C4.51115 13.6145 4.50954 13.7016 4.49028 13.786L3.4281 18.512C3.39516 18.6587 3.31052 18.7903 3.18829 18.8847C3.06607 18.9791 2.91363 19.0306 2.75641 19.0308ZM7.70675 18.0169C7.5708 18.0168 7.43791 17.9783 7.32487 17.9062C7.21184 17.8341 7.12375 17.7316 7.07172 17.6117C7.0197 17.4918 7.00609 17.3599 7.0326 17.2326C7.05912 17.1053 7.12457 16.9884 7.22069 16.8966L17.9643 6.64175C18.0277 6.57907 18.1035 6.52908 18.1874 6.49469C18.2713 6.46029 18.3615 6.44219 18.4528 6.44143C18.5441 6.44067 18.6346 6.45728 18.7191 6.49027C18.8036 6.52327 18.8803 6.572 18.9449 6.63362C19.0094 6.69523 19.0605 6.76851 19.0951 6.84916C19.1296 6.92981 19.147 7.01622 19.1462 7.10336C19.1454 7.1905 19.1265 7.27661 19.0904 7.35667C19.0544 7.43674 19.002 7.50915 18.9364 7.56969L8.19316 17.8246C8.12936 17.8856 8.05354 17.9341 7.97007 17.9671C7.88659 18.0001 7.7971 18.017 7.70675 18.0169Z" fill="#0B243F"/>
<path d="M2.75523 19.0308C2.58583 19.0302 2.42264 18.9698 2.29696 18.8614C2.17127 18.753 2.09192 18.6041 2.07412 18.4433C2.05632 18.2824 2.10132 18.121 2.20049 17.9899C2.29966 17.8588 2.44603 17.7672 2.61155 17.7328L7.56258 16.7189C7.74061 16.683 7.92629 16.7159 8.07893 16.8105C8.23157 16.905 8.33871 17.0535 8.37688 17.2233C8.41504 17.3931 8.38112 17.5705 8.28254 17.7165C8.18397 17.8625 8.02878 17.9652 7.85099 18.0022L2.89995 19.0161C2.85241 19.026 2.80389 19.0309 2.75523 19.0308ZM16.5059 9.61792C16.4156 9.61808 16.3262 9.60117 16.2427 9.56817C16.1593 9.53517 16.0836 9.48673 16.0199 9.42564L12.131 5.71356C12.0654 5.65303 12.013 5.58061 11.9769 5.50055C11.9409 5.42048 11.9219 5.33437 11.9212 5.24723C11.9204 5.1601 11.9378 5.07368 11.9723 4.99303C12.0069 4.91238 12.0579 4.83911 12.1225 4.77749C12.187 4.71587 12.2638 4.66715 12.3483 4.63415C12.4328 4.60115 12.5233 4.58455 12.6146 4.5853C12.7059 4.58606 12.7961 4.60417 12.88 4.63856C12.9639 4.67295 13.0397 4.72295 13.1031 4.78562L16.992 8.4977C17.0881 8.58948 17.1536 8.7064 17.1801 8.83368C17.2066 8.96096 17.193 9.09289 17.141 9.21279C17.0889 9.33269 17.0008 9.43517 16.8878 9.50728C16.7748 9.57939 16.6419 9.61789 16.5059 9.61792ZM18.4505 7.76205C18.3145 7.76215 18.1814 7.72372 18.0683 7.65161C17.9551 7.57951 17.8669 7.47698 17.8148 7.357C17.7628 7.23703 17.7491 7.10499 17.7757 6.97763C17.8023 6.85026 17.8679 6.73328 17.9641 6.6415C18.3467 6.2763 18.5574 5.78181 18.5574 5.24959C18.5574 4.71738 18.3467 4.22289 17.9641 3.85769C17.5812 3.49216 17.0631 3.29102 16.5056 3.29102C15.948 3.29102 15.43 3.49216 15.0474 3.85769C14.9835 3.91864 14.9077 3.96699 14.8243 3.99997C14.7409 4.03296 14.6515 4.04994 14.5612 4.04994C14.4709 4.04994 14.3814 4.03296 14.298 3.99997C14.2146 3.96699 14.1388 3.91864 14.0749 3.85769C14.0111 3.79674 13.9604 3.72438 13.9259 3.64474C13.8913 3.56511 13.8735 3.47975 13.8735 3.39355C13.8735 3.30736 13.8913 3.222 13.9259 3.14237C13.9604 3.06273 14.0111 2.99037 14.0749 2.92942C14.717 2.31616 15.5802 1.97852 16.5056 1.97852C17.4306 1.97852 18.2941 2.31616 18.9362 2.92942C19.5787 3.54236 19.9324 4.36628 19.9324 5.24959C19.9324 6.13291 19.5787 6.95683 18.9362 7.56977C18.8726 7.63081 18.7969 7.67923 18.7135 7.71223C18.6301 7.74524 18.5408 7.76216 18.4505 7.76205Z" fill="#0B243F"/>
</svg>
