<svg width="22" height="22" viewBox="0 0 22 22" fill="none" xmlns="http://www.w3.org/2000/svg">
<path d="M19.0352 0H2.96454C1.3273 0 0 1.32725 0 2.96454V19.0353C0 20.6726 1.32725 21.9999 2.96454 21.9999H10.8905L10.904 14.1383H8.86161C8.73412 14.1383 8.61183 14.0878 8.52151 13.9978C8.43119 13.9079 8.38021 13.7858 8.37973 13.6583L8.36993 11.1242C8.36969 11.0607 8.38198 10.9978 8.40609 10.9392C8.4302 10.8805 8.46566 10.8271 8.51044 10.7822C8.55522 10.7372 8.60843 10.7016 8.66702 10.6772C8.72561 10.6529 8.78843 10.6404 8.85187 10.6404H10.8906V8.1918C10.8906 5.35023 12.626 3.80297 15.1609 3.80297H17.241C17.3688 3.80297 17.4914 3.85374 17.5817 3.94412C17.6721 4.0345 17.7229 4.15709 17.7229 4.28491V6.42168C17.7229 6.54945 17.6722 6.67199 17.5818 6.76237C17.4915 6.85274 17.369 6.90355 17.2412 6.90362L15.9647 6.90421C14.5862 6.90421 14.3193 7.55928 14.3193 8.52062V10.6404H17.3484C17.637 10.6404 17.8609 10.8925 17.8269 11.1791L17.5266 13.7132C17.5127 13.8304 17.4563 13.9384 17.3681 14.0168C17.2799 14.0951 17.166 14.1384 17.048 14.1384H14.3328L14.3193 22H19.0353C20.6726 22 21.9998 20.6727 21.9998 19.0355V2.96454C21.9998 1.32725 20.6725 0 19.0352 0Z" fill="#475993"/>
</svg>
