<svg width="22" height="22" viewBox="0 0 22 22" fill="none" xmlns="http://www.w3.org/2000/svg">
<g clip-path="url(#clip0_128_9455)">
<path d="M19 0H3C1.34315 0 0 1.34315 0 3V19C0 20.6569 1.34315 22 3 22H19C20.6569 22 22 20.6569 22 19V3C22 1.34315 20.6569 0 19 0Z" fill="#0077B5"/>
<path d="M7.92481 6C7.92481 6.37084 7.81484 6.73335 7.60881 7.04169C7.40278 7.35004 7.10995 7.59036 6.76734 7.73227C6.42473 7.87419 6.04773 7.91132 5.68401 7.83897C5.3203 7.76663 4.9862 7.58805 4.72398 7.32583C4.46176 7.0636 4.28318 6.72951 4.21083 6.36579C4.13849 6.00208 4.17562 5.62508 4.31753 5.28247C4.45945 4.93986 4.69977 4.64702 5.00811 4.44099C5.31645 4.23497 5.67897 4.125 6.04981 4.125C6.54709 4.125 7.024 4.32254 7.37563 4.67417C7.72726 5.02581 7.92481 5.50272 7.92481 6ZM7.49981 9.125V17.4088C7.50014 17.4699 7.48838 17.5304 7.46523 17.587C7.44207 17.6435 7.40796 17.695 7.36486 17.7383C7.32177 17.7816 7.27053 17.816 7.2141 17.8395C7.15768 17.8629 7.09717 17.875 7.03606 17.875H5.05981C4.99869 17.8752 4.93815 17.8633 4.88166 17.8399C4.82517 17.8166 4.77385 17.7824 4.73063 17.7392C4.68742 17.696 4.65318 17.6446 4.62987 17.5881C4.60656 17.5317 4.59464 17.4711 4.59481 17.41V9.125C4.59481 9.00168 4.6438 8.8834 4.731 8.7962C4.81821 8.70899 4.93648 8.66 5.05981 8.66H7.03606C7.15917 8.66033 7.27712 8.70947 7.36405 8.79664C7.45099 8.88381 7.49981 9.00189 7.49981 9.125ZM17.8298 13.4375V17.4475C17.83 17.5037 17.819 17.5594 17.7976 17.6113C17.7762 17.6632 17.7447 17.7104 17.705 17.7502C17.6652 17.7899 17.618 17.8214 17.5661 17.8428C17.5142 17.8642 17.4585 17.8752 17.4023 17.875H15.2773C15.2211 17.8752 15.1655 17.8642 15.1135 17.8428C15.0616 17.8214 15.0144 17.7899 14.9747 17.7502C14.9349 17.7104 14.9034 17.6632 14.882 17.6113C14.8606 17.5594 14.8496 17.5037 14.8498 17.4475V13.5613C14.8498 12.9813 15.0198 11.0213 13.3336 11.0213C12.0273 11.0213 11.7611 12.3625 11.7086 12.965V17.4475C11.7086 17.5598 11.6644 17.6676 11.5856 17.7476C11.5067 17.8276 11.3996 17.8734 11.2873 17.875H9.23481C9.17872 17.875 9.1232 17.8639 9.0714 17.8424C9.0196 17.8209 8.97256 17.7894 8.93296 17.7497C8.89336 17.71 8.86199 17.6629 8.84064 17.611C8.81929 17.5591 8.80839 17.5036 8.80856 17.4475V9.08875C8.80839 9.03267 8.81929 8.97711 8.84064 8.92525C8.86199 8.87339 8.89336 8.82625 8.93296 8.78654C8.97256 8.74682 9.0196 8.71531 9.0714 8.69382C9.1232 8.67232 9.17872 8.66125 9.23481 8.66125H11.2873C11.4007 8.66125 11.5094 8.70629 11.5896 8.78646C11.6698 8.86663 11.7148 8.97537 11.7148 9.08875V9.81125C12.1998 9.08375 12.9186 8.5225 14.4523 8.5225C17.8498 8.5225 17.8298 11.695 17.8298 13.4375Z" fill="white"/>
</g>
<defs>
<clipPath id="clip0_128_9455">
<rect width="22" height="22" fill="white"/>
</clipPath>
</defs>
</svg>
