<svg width="24" height="25" viewBox="0 0 24 25" fill="none" xmlns="http://www.w3.org/2000/svg">
<path d="M11.9005 12.6761C12.6703 12.6761 13.4227 12.4478 14.0628 12.0201C14.7028 11.5925 15.2016 10.9846 15.4961 10.2735C15.7907 9.5623 15.8677 8.77976 15.7175 8.02481C15.5672 7.26987 15.1965 6.57642 14.6522 6.03218C14.1078 5.48794 13.4143 5.11735 12.6593 4.96727C11.9043 4.81719 11.1218 4.89436 10.4107 5.18904C9.6996 5.48371 9.09184 5.98264 8.6643 6.62274C8.23676 7.26283 8.00864 8.01533 8.00879 8.78508C8.00998 9.8168 8.42041 10.8059 9.15002 11.5354C9.87963 12.2648 10.8688 12.6751 11.9005 12.6761ZM11.9005 6.01758C12.4477 6.01758 12.9826 6.17983 13.4376 6.48381C13.8926 6.78779 14.2472 7.21985 14.4566 7.72537C14.666 8.23088 14.7209 8.78714 14.6142 9.32382C14.5075 9.8605 14.2441 10.3535 13.8572 10.7405C13.4703 11.1274 12.9774 11.391 12.4408 11.4978C11.9041 11.6047 11.3478 11.55 10.8423 11.3407C10.3367 11.1314 9.90454 10.7769 9.60044 10.322C9.29633 9.86711 9.13394 9.33226 9.13379 8.78508C9.13458 8.05147 9.42631 7.34812 9.94498 6.8293C10.4637 6.31049 11.1669 6.01857 11.9005 6.01758Z" fill="black"/>
<path d="M18.1343 15.0935C19.2849 13.1789 19.9564 11.0149 20.0918 8.78525C20.0918 6.61273 19.2288 4.52919 17.6926 2.99299C16.1564 1.45678 14.0728 0.59375 11.9003 0.59375C9.7278 0.59375 7.64426 1.45678 6.10805 2.99299C4.57185 4.52919 3.70882 6.61273 3.70882 8.78525C3.8442 11.0149 4.51571 13.1789 5.66632 15.0935C2.15857 15.9658 0.0908203 17.5115 0.0908203 19.2973C0.0908203 22.0993 5.16757 24.212 11.9003 24.212C18.6331 24.212 23.7098 22.0993 23.7098 19.2973C23.7098 17.513 21.6421 15.9673 18.1343 15.0935ZM11.9003 1.718C13.7739 1.72018 15.5702 2.46549 16.8949 3.79041C18.2197 5.11532 18.9648 6.91164 18.9668 8.78525C18.9668 12.9275 14.6753 19.346 11.9003 19.346C9.12532 19.346 4.83382 12.9275 4.83382 8.78525C4.8358 6.91164 5.58092 5.11532 6.9057 3.79041C8.23047 2.46549 10.0267 1.72018 11.9003 1.718ZM11.9003 23.087C5.60032 23.087 1.21582 21.0898 1.21582 19.2973C1.21582 18.0688 3.23557 16.8073 6.27682 16.1068C7.87807 18.566 9.98707 20.471 11.9018 20.471C13.8166 20.471 15.9241 18.566 17.5268 16.1068C20.5688 16.8088 22.5878 18.0703 22.5878 19.2973C22.5848 21.0898 18.2003 23.087 11.9003 23.087Z" fill="black"/>
</svg>
