<svg width="18" height="18" viewBox="0 0 18 18" fill="none" xmlns="http://www.w3.org/2000/svg">
<path d="M8.71309 16.9916L8.7133 16.9918C8.79254 17.0614 8.8944 17.0999 8.99991 17.1H9.00009C9.1056 17.0999 9.20746 17.0614 9.2867 16.9918L9.28691 16.9916C9.40715 16.8853 10.8574 15.5918 12.2784 13.7267C13.6965 11.8652 15.1 9.41578 15.1 7C15.1 3.6361 12.3632 0.9 9 0.9C5.63678 0.9 2.9 3.6361 2.9 7C2.9 9.41578 4.30346 11.8652 5.72162 13.7267C7.14259 15.5918 8.59285 16.8853 8.71309 16.9916ZM9 17C8.91877 16.9999 8.84034 16.9703 8.77933 16.9167H9.22067C9.15966 16.9703 9.08123 16.9999 9 17ZM3.76667 7C3.76667 4.11456 6.11456 1.76667 9 1.76667C11.8854 1.76667 14.2333 4.11456 14.2333 7C14.2333 8.94032 13.1738 10.9785 11.9725 12.6625C10.8237 14.2731 9.55617 15.5448 9 16.0749C8.44383 15.5448 7.17633 14.2731 6.02749 12.6625C4.82624 10.9785 3.76667 8.94032 3.76667 7Z" fill="#97A1AC" stroke="#97A1AC" stroke-width="0.2"/>
<path d="M5.9 7C5.9 8.70943 7.29057 10.1 9 10.1C10.7094 10.1 12.1 8.70943 12.1 7C12.1 5.29057 10.7094 3.9 9 3.9C7.29057 3.9 5.9 5.29057 5.9 7ZM6.7 7C6.7 5.73163 7.73163 4.7 9 4.7C10.2684 4.7 11.3 5.73163 11.3 7C11.3 8.26837 10.2684 9.3 9 9.3C7.73163 9.3 6.7 8.26837 6.7 7Z" fill="#97A1AC" stroke="#97A1AC" stroke-width="0.2"/>
</svg>
