<svg width="18" height="24" viewBox="0 0 18 24" fill="none" xmlns="http://www.w3.org/2000/svg">
<path d="M17.2031 11.25C17.2031 10.8617 16.8883 10.5469 16.5 10.5469C16.1117 10.5469 15.7969 10.8617 15.7969 11.25C15.7969 14.9978 12.7478 18.0469 9 18.0469C5.2522 18.0469 2.20312 14.9978 2.20312 11.25C2.20312 10.8617 1.88831 10.5469 1.5 10.5469C1.11169 10.5469 0.796875 10.8617 0.796875 11.25C0.796875 15.5363 4.10161 19.0648 8.29688 19.4227V22.5938H4.5C4.11169 22.5938 3.79688 22.9086 3.79688 23.2969C3.79688 23.6852 4.11169 24 4.5 24H13.5C13.8883 24 14.2031 23.6852 14.2031 23.2969C14.2031 22.9086 13.8883 22.5938 13.5 22.5938H9.70312V19.4227C13.8984 19.0648 17.2031 15.5363 17.2031 11.25Z" fill="#FF5646"/>
<path d="M11.625 11.9531C11.2367 11.9531 10.9219 11.6383 10.9219 11.25C10.9219 10.8617 11.2367 10.5469 11.625 10.5469H14.2031V8.95312H10.875C10.4867 8.95312 10.1719 8.63831 10.1719 8.25C10.1719 7.86169 10.4867 7.54688 10.875 7.54688H14.2031V5.95312H11.625C11.2367 5.95312 10.9219 5.63831 10.9219 5.25C10.9219 4.86169 11.2367 4.54688 11.625 4.54688H14.1852C13.9724 2.00381 11.8544 0 9.28125 0H8.71875C6.14559 0 4.02759 2.00386 3.81473 4.54688H6.375C6.76331 4.54688 7.07812 4.86169 7.07812 5.25C7.07812 5.63831 6.76331 5.95312 6.375 5.95312H3.79688V7.54688H7.125C7.51331 7.54688 7.82812 7.86169 7.82812 8.25C7.82812 8.63831 7.51331 8.95312 7.125 8.95312H3.79688V10.5469H6.375C6.76331 10.5469 7.07812 10.8617 7.07812 11.25C7.07812 11.6383 6.76331 11.9531 6.375 11.9531H3.81516C4.02989 14.4703 6.14695 16.4531 8.71875 16.4531H9.28125C11.853 16.4531 13.9701 14.4703 14.1848 11.9531H11.625Z" fill="#FF5646"/>
</svg>
