<?xml version="1.0" encoding="UTF-8"?>
<!DOCTYPE svg PUBLIC "-//W3C//DTD SVG 1.1//EN" "http://www.w3.org/Graphics/SVG/1.1/DTD/svg11.dtd">
<svg xmlns="http://www.w3.org/2000/svg" version="1.1" width="231px" height="195px" style="shape-rendering:geometricPrecision; text-rendering:geometricPrecision; image-rendering:optimizeQuality; fill-rule:evenodd; clip-rule:evenodd" xmlns:xlink="http://www.w3.org/1999/xlink">
<g><path style="opacity:1" fill="#fdfdfd" d="M -0.5,-0.5 C 76.5,-0.5 153.5,-0.5 230.5,-0.5C 230.5,41.1667 230.5,82.8333 230.5,124.5C 227.123,115.13 220.457,109.796 210.5,108.5C 213.149,96.9965 209.983,87.6632 201,80.5C 200.667,59.1667 200.333,37.8333 200,16.5C 197.5,8.66667 192.333,3.5 184.5,1C 128.5,0.333333 72.5,0.333333 16.5,1C 8.66667,3.5 3.5,8.66667 1,16.5C 0.333333,54.8333 0.333333,93.1667 1,131.5C 3.61446,139.237 8.78112,144.404 16.5,147C 60.1654,147.5 103.832,147.667 147.5,147.5C 147.5,155.167 147.5,162.833 147.5,170.5C 99.8322,170.333 52.1655,170.5 4.5,171C -0.803553,175.098 -0.803553,179.098 4.5,183C 53.5034,183.167 102.503,183.667 151.5,184.5C 154.593,188.927 158.593,192.26 163.5,194.5C 108.833,194.5 54.1667,194.5 -0.5,194.5C -0.5,129.5 -0.5,64.5 -0.5,-0.5 Z"/></g>
<g><path style="opacity:1" fill="#56677a" d="M 230.5,124.5 C 230.5,142.167 230.5,159.833 230.5,177.5C 227.5,185.833 221.833,191.5 213.5,194.5C 196.833,194.5 180.167,194.5 163.5,194.5C 158.593,192.26 154.593,188.927 151.5,184.5C 102.503,183.667 53.5034,183.167 4.5,183C -0.803553,179.098 -0.803553,175.098 4.5,171C 52.1655,170.5 99.8322,170.333 147.5,170.5C 147.5,162.833 147.5,155.167 147.5,147.5C 103.832,147.667 60.1654,147.5 16.5,147C 8.78112,144.404 3.61446,139.237 1,131.5C 0.333333,93.1667 0.333333,54.8333 1,16.5C 3.5,8.66667 8.66667,3.5 16.5,1C 72.5,0.333333 128.5,0.333333 184.5,1C 192.333,3.5 197.5,8.66667 200,16.5C 200.333,37.8333 200.667,59.1667 201,80.5C 209.983,87.6632 213.149,96.9965 210.5,108.5C 220.457,109.796 227.123,115.13 230.5,124.5 Z"/></g>
<g><path style="opacity:1" fill="#fdfdfd" d="M 19.5,13.5 C 74.2258,13.0126 128.892,13.5126 183.5,15C 184.667,16.1667 185.833,17.3333 187,18.5C 187.5,38.1638 187.667,57.8305 187.5,77.5C 177.912,77.3825 171.079,81.7158 167,90.5C 165.893,96.7869 165.393,103.12 165.5,109.5C 156.498,110.66 150.665,115.66 148,124.5C 147.502,127.482 147.335,130.482 147.5,133.5C 103.748,133.989 60.0817,133.489 16.5,132C 15.5399,130.581 14.7065,129.081 14,127.5C 13.3333,91.5 13.3333,55.5 14,19.5C 15.3597,16.9774 17.193,14.9774 19.5,13.5 Z"/></g>
<g><path style="opacity:1" fill="#58697b" d="M 78.5,33.5 C 80.6547,33.372 82.6547,33.872 84.5,35C 101.999,46.2504 119.665,57.2504 137.5,68C 141.601,72.2943 141.268,76.2943 136.5,80C 119.332,90.4165 102.332,101.083 85.5,112C 80.3394,114.789 76.506,113.623 74,108.5C 73.3333,84.8333 73.3333,61.1667 74,37.5C 75.3968,35.9297 76.8968,34.5964 78.5,33.5 Z"/></g>
<g><path style="opacity:1" fill="#fcfdfd" d="M 88.5,53.5 C 99.3081,60.0732 109.975,66.9065 120.5,74C 109.598,81.0848 98.5978,87.9182 87.5,94.5C 87.171,80.6565 87.5043,66.9898 88.5,53.5 Z"/></g>
<g><path style="opacity:1" fill="#9ea7b2" d="M 88.5,53.5 C 87.5043,66.9898 87.171,80.6565 87.5,94.5C 86.1743,80.661 86.1743,66.661 87.5,52.5C 88.1067,52.6236 88.44,52.9569 88.5,53.5 Z"/></g>
<g><path style="opacity:1" fill="#fdfdfd" d="M 185.5,89.5 C 189.79,88.9874 193.623,89.9874 197,92.5C 197.499,97.8229 197.666,103.156 197.5,108.5C 191.5,108.5 185.5,108.5 179.5,108.5C 179.334,103.821 179.501,99.1548 180,94.5C 181.107,91.887 182.94,90.2203 185.5,89.5 Z"/></g>
<g><path style="opacity:1" fill="#fcfcfc" d="M 166.5,121.5 C 181.17,121.333 195.837,121.5 210.5,122C 213.196,122.69 215.363,124.19 217,126.5C 217.667,142.5 217.667,158.5 217,174.5C 216.654,176.848 215.487,178.681 213.5,180C 197.167,180.667 180.833,180.667 164.5,180C 163.667,179.167 162.833,178.333 162,177.5C 160.377,160.9 160.044,144.233 161,127.5C 162.36,124.977 164.193,122.977 166.5,121.5 Z"/></g>
<g><path style="opacity:1" fill="#f5f6f7" d="M 230.5,177.5 C 230.5,183.167 230.5,188.833 230.5,194.5C 224.833,194.5 219.167,194.5 213.5,194.5C 221.833,191.5 227.5,185.833 230.5,177.5 Z"/></g>
</svg>
