<svg width="21" height="20" viewBox="0 0 21 20" fill="none" xmlns="http://www.w3.org/2000/svg">
<g clip-path="url(#clip0_297_244)">
<path d="M10.1235 20C9.86453 20 9.61614 19.8971 9.433 19.714C9.24986 19.5308 9.14697 19.2824 9.14697 19.0234V0.976562C9.14697 0.717562 9.24986 0.46917 9.433 0.286029C9.61614 0.102888 9.86453 0 10.1235 0C10.3825 0 10.6309 0.102888 10.8141 0.286029C10.9972 0.46917 11.1001 0.717562 11.1001 0.976562V19.0234C11.1001 19.2824 10.9972 19.5308 10.8141 19.714C10.6309 19.8971 10.3825 20 10.1235 20Z" fill="#536477"/>
<path d="M19.147 10.9766H1.1001C0.841097 10.9766 0.592705 10.8737 0.409564 10.6905C0.226423 10.5074 0.123535 10.259 0.123535 10C0.123535 9.741 0.226423 9.49261 0.409564 9.30947C0.592705 9.12632 0.841097 9.02344 1.1001 9.02344H19.147C19.406 9.02344 19.6544 9.12632 19.8375 9.30947C20.0206 9.49261 20.1235 9.741 20.1235 10C20.1235 10.259 20.0206 10.5074 19.8375 10.6905C19.6544 10.8737 19.406 10.9766 19.147 10.9766Z" fill="#536477"/>
</g>
<defs>
<clipPath id="clip0_297_244">
<rect width="20" height="20" fill="white" transform="translate(0.123535)"/>
</clipPath>
</defs>
</svg>
