<svg width="27" height="26" viewBox="0 0 27 26" fill="none" xmlns="http://www.w3.org/2000/svg">
<path d="M13.4997 1.08301C11.1428 1.08301 8.83882 1.78191 6.87913 3.09133C4.91945 4.40075 3.39206 6.26188 2.49012 8.43936C1.58817 10.6168 1.35218 13.0129 1.81199 15.3245C2.2718 17.6361 3.40675 19.7595 5.07332 21.426C6.7399 23.0926 8.86325 24.2276 11.1749 24.6874C13.4865 25.1472 15.8825 24.9112 18.06 24.0092C20.2375 23.1073 22.0986 21.5799 23.408 19.6202C24.7174 17.6605 25.4163 15.3566 25.4163 12.9997C25.4126 9.84032 24.1559 6.81144 21.9219 4.57744C19.6879 2.34343 16.659 1.08673 13.4997 1.08301ZM18.9163 14.083H14.583V18.4163C14.583 18.7037 14.4689 18.9792 14.2657 19.1824C14.0625 19.3855 13.787 19.4997 13.4997 19.4997C13.2124 19.4997 12.9368 19.3855 12.7336 19.1824C12.5305 18.9792 12.4163 18.7037 12.4163 18.4163V14.083H8.08301C7.7957 14.083 7.52015 13.9689 7.31698 13.7657C7.11382 13.5625 6.99968 13.287 6.99968 12.9997C6.99968 12.7124 7.11382 12.4368 7.31698 12.2336C7.52015 12.0305 7.7957 11.9163 8.08301 11.9163H12.4163V7.58301C12.4163 7.29569 12.5305 7.02014 12.7336 6.81698C12.9368 6.61381 13.2124 6.49967 13.4997 6.49967C13.787 6.49967 14.0625 6.61381 14.2657 6.81698C14.4689 7.02014 14.583 7.29569 14.583 7.58301V11.9163H18.9163C19.2037 11.9163 19.4792 12.0305 19.6824 12.2336C19.8855 12.4368 19.9997 12.7124 19.9997 12.9997C19.9997 13.287 19.8855 13.5625 19.6824 13.7657C19.4792 13.9689 19.2037 14.083 18.9163 14.083Z" fill="#FF5646"/>
</svg>
