<svg width="18" height="21" viewBox="0 0 18 21" fill="none" xmlns="http://www.w3.org/2000/svg">
<path d="M1.99997 20.7501C1.7298 20.7491 1.46328 20.6876 1.21997 20.5701C0.921726 20.43 0.669409 20.208 0.492378 19.9301C0.315347 19.6521 0.220881 19.3296 0.219971 19.0001V2.00011C0.221274 1.76814 0.268424 1.53871 0.358709 1.32502C0.448994 1.11133 0.580633 0.917596 0.746056 0.754961C0.911479 0.592326 1.10742 0.463999 1.32261 0.377358C1.53781 0.290718 1.76801 0.247474 1.99997 0.250114H16C16.4633 0.252739 16.9069 0.437956 17.2345 0.765578C17.5621 1.0932 17.7473 1.53679 17.75 2.00011V19.0001C17.7435 19.3168 17.6512 19.6258 17.4828 19.8941C17.3145 20.1624 17.0766 20.3801 16.7943 20.5238C16.512 20.6675 16.196 20.7319 15.88 20.7101C15.564 20.6883 15.2599 20.5812 15 20.4001L9.19997 16.0501C9.1574 16.016 9.1045 15.9975 9.04997 15.9975C8.99544 15.9975 8.94254 16.016 8.89997 16.0501L3.04997 20.4001C2.74638 20.626 2.37839 20.7487 1.99997 20.7501ZM1.99997 1.75011C1.93367 1.75011 1.87008 1.77645 1.82319 1.82334C1.77631 1.87022 1.74997 1.93381 1.74997 2.00011V19.0001C1.74962 19.0464 1.76265 19.0918 1.78748 19.1308C1.81232 19.1698 1.84791 19.2008 1.88997 19.2201C1.92825 19.2463 1.97357 19.2604 2.01997 19.2604C2.06637 19.2604 2.11169 19.2463 2.14997 19.2201L7.99997 14.8501C8.30416 14.626 8.67211 14.505 9.04997 14.505C9.42783 14.505 9.79578 14.626 10.1 14.8501L15.9 19.2001C15.9382 19.2263 15.9836 19.2404 16.03 19.2404C16.0764 19.2404 16.1217 19.2263 16.16 19.2001C16.202 19.1808 16.2376 19.1498 16.2625 19.1108C16.2873 19.0718 16.3003 19.0264 16.3 18.9801V2.00011C16.3007 1.96262 16.293 1.92543 16.2775 1.89131C16.2619 1.85719 16.2389 1.82701 16.2101 1.803C16.1813 1.77899 16.1474 1.76177 16.111 1.75261C16.0747 1.74346 16.0367 1.74261 16 1.75011H1.99997Z" fill="#0B243F"/>
</svg>
