<svg width="41" height="41" viewBox="0 0 41 41" fill="none" xmlns="http://www.w3.org/2000/svg">
<path d="M35.3298 23.1373C35.761 22.6617 36 22.0428 36.0002 21.4009C36.0002 20.1741 35.145 19.1457 34.0002 18.8737V14.2945L34.6826 13.9305C34.7784 13.8792 34.8585 13.8028 34.9144 13.7095C34.9702 13.6163 34.9997 13.5096 34.9997 13.4009C34.9997 13.2922 34.9702 13.1855 34.9144 13.0923C34.8585 12.999 34.7784 12.9226 34.6826 12.8713L19.6826 4.87129C19.5957 4.82499 19.4987 4.80078 19.4002 4.80078C19.3017 4.80078 19.2047 4.82499 19.1178 4.87129L4.1178 12.8713C4.02176 12.9224 3.94143 12.9987 3.88541 13.092C3.8294 13.1853 3.7998 13.2921 3.7998 13.4009C3.7998 13.5097 3.8294 13.6165 3.88541 13.7098C3.94143 13.803 4.02176 13.8793 4.1178 13.9305L10.8002 17.4945V25.4009C10.8002 27.9801 14.5778 30.0009 19.4002 30.0009C24.2226 30.0009 28.0002 27.9801 28.0002 25.4009V17.4941L32.8002 14.9341V18.8733C31.6554 19.1453 30.8002 20.1737 30.8002 21.4005C30.8002 22.0681 31.0554 22.6761 31.4706 23.1369C29.8966 23.7097 28.8002 24.9553 28.8002 26.4009V32.4009C28.8002 34.3861 30.8638 36.0009 33.4002 36.0009C35.9366 36.0009 38.0002 34.3861 38.0002 32.4009V26.4009C38.0002 24.9553 36.9038 23.7097 35.3298 23.1373ZM26.8002 25.4009C26.8002 27.0425 23.8266 28.8009 19.4002 28.8009C14.9738 28.8009 12.0002 27.0425 12.0002 25.4009V18.1341L19.1178 21.9301C19.2047 21.9766 19.3017 22.0009 19.4002 22.0009C19.4987 22.0009 19.5957 21.9766 19.6826 21.9301L26.8002 18.1341V25.4009ZM32.0002 14.0009L19.4002 20.7209L5.67501 13.4009L19.4002 6.08089L32.0002 12.8009H19.4002V14.0009H32.0002ZM33.4002 20.0009C34.1722 20.0009 34.8002 20.6289 34.8002 21.4009C34.8002 22.1729 34.1722 22.8009 33.4002 22.8009C32.6282 22.8009 32.0002 22.1729 32.0002 21.4009C32.0002 20.6289 32.6282 20.0009 33.4002 20.0009ZM30.0002 26.4009C30.0002 25.2221 31.211 24.2417 32.8002 24.0405V26.8009H30.0002V26.4009ZM36.8002 32.4009C36.8002 33.7245 35.275 34.8009 33.4002 34.8009C31.5254 34.8009 30.0002 33.7245 30.0002 32.4009V28.0009H36.8002V32.4009ZM36.8002 26.8009H34.0002V24.0405C35.5894 24.2413 36.8002 25.2221 36.8002 26.4009V26.8009Z" fill="black"/>
</svg>
