<svg width="25" height="25" viewBox="0 0 25 25" fill="none" xmlns="http://www.w3.org/2000/svg">
<g clip-path="url(#clip0_249_1590)">
<path d="M4.42952 16.1079C3.71381 16.1079 3.01417 15.8956 2.4191 15.498C1.82403 15.1003 1.36025 14.5351 1.08642 13.8739C0.812595 13.2126 0.741021 12.485 0.880752 11.7831C1.02048 11.0811 1.36524 10.4364 1.87143 9.9304C2.37761 9.42441 3.02248 9.07991 3.72447 8.94045C4.42647 8.80099 5.15405 8.87285 5.8152 9.14693C6.47635 9.42102 7.04137 9.88502 7.4388 10.4802C7.83622 11.0755 8.0482 11.7752 8.04792 12.4909C8.0468 13.4501 7.66517 14.3697 6.98679 15.0478C6.30841 15.7259 5.38871 16.1071 4.42952 16.1079ZM4.42952 10.2843C3.99309 10.2843 3.56647 10.4137 3.20359 10.6562C2.84072 10.8986 2.55789 11.2433 2.39087 11.6465C2.22386 12.0497 2.18016 12.4934 2.2653 12.9214C2.35045 13.3494 2.56061 13.7426 2.86921 14.0512C3.17781 14.3598 3.57099 14.57 3.99903 14.6551C4.42707 14.7403 4.87075 14.6966 5.27396 14.5296C5.67716 14.3625 6.02179 14.0797 6.26426 13.7168C6.50672 13.354 6.63614 12.9273 6.63614 12.4909C6.63577 11.9058 6.40316 11.3447 5.98942 10.931C5.57568 10.5173 5.01464 10.2847 4.42952 10.2843ZM8.66487 24.4021C8.47766 24.4021 8.29811 24.3278 8.16573 24.1954C8.03335 24.063 7.95898 23.8834 7.95898 23.6962V22.2844C7.95898 21.3484 7.58713 20.4506 6.92523 19.7887C6.26332 19.1268 5.36559 18.755 4.42952 18.755C3.49345 18.755 2.59572 19.1268 1.93382 19.7887C1.27192 20.4506 0.900064 21.3484 0.900064 22.2844V23.6962C0.900064 23.8834 0.825694 24.063 0.693313 24.1954C0.560933 24.3278 0.381387 24.4021 0.194173 24.4021C0.00695878 24.4021 -0.172587 24.3278 -0.304968 24.1954C-0.437348 24.063 -0.511719 23.8834 -0.511719 23.6962V22.2844C-0.511719 20.9739 0.00887507 19.7171 0.935538 18.7905C1.8622 17.8638 3.11902 17.3432 4.42952 17.3432C5.74002 17.3432 6.99684 17.8638 7.92351 18.7905C8.85017 19.7171 9.37076 20.9739 9.37076 22.2844V23.6962C9.37076 23.8834 9.29639 24.063 9.16401 24.1954C9.03163 24.3278 8.85209 24.4021 8.66487 24.4021Z" fill="#2B3344"/>
<path d="M8.66455 23.4991C8.53028 23.499 8.39883 23.4606 8.28561 23.3885C8.17239 23.3163 8.0821 23.2133 8.02534 23.0916C7.96858 22.97 7.94769 22.8346 7.96514 22.7015C7.98258 22.5684 8.03763 22.443 8.12383 22.34L18.0063 10.5375C18.1285 10.4011 18.299 10.3175 18.4818 10.3044C18.6645 10.2913 18.8452 10.3498 18.9856 10.4675C19.126 10.5852 19.2151 10.7528 19.2342 10.935C19.2533 11.1172 19.2007 11.2997 19.0877 11.4439L9.20526 23.2464C9.13906 23.3255 9.05634 23.3891 8.96293 23.4327C8.86951 23.4764 8.76766 23.499 8.66455 23.4991ZM3.01741 7.46126C2.8302 7.46126 2.65065 7.38689 2.51827 7.25451C2.38589 7.12213 2.31152 6.94258 2.31152 6.75537V1.10824C2.31152 0.921021 2.38589 0.741475 2.51827 0.609095C2.65065 0.476714 2.8302 0.402344 3.01741 0.402344C3.20463 0.402344 3.38418 0.476714 3.51656 0.609095C3.64894 0.741475 3.72331 0.921021 3.72331 1.10824V6.75537C3.72331 6.94258 3.64894 7.12213 3.51656 7.25451C3.38418 7.38689 3.20463 7.46126 3.01741 7.46126Z" fill="#2B3344"/>
<path d="M25.6066 1.81413H1.60628C1.41907 1.81413 1.23952 1.73976 1.10714 1.60738C0.974761 1.475 0.900391 1.29545 0.900391 1.10824C0.900391 0.921021 0.974761 0.741475 1.10714 0.609095C1.23952 0.476714 1.41907 0.402344 1.60628 0.402344H25.6066C25.7938 0.402344 25.9734 0.476714 26.1057 0.609095C26.2381 0.741475 26.3125 0.921021 26.3125 1.10824C26.3125 1.29545 26.2381 1.475 26.1057 1.60738C25.9734 1.73976 25.7938 1.81413 25.6066 1.81413Z" fill="#2B3344"/>
<path d="M24.1942 17.3437C24.007 17.3437 23.8274 17.2694 23.695 17.137C23.5627 17.0046 23.4883 16.8251 23.4883 16.6378V1.10824C23.4883 0.921021 23.5627 0.741475 23.695 0.609095C23.8274 0.476714 24.007 0.402344 24.1942 0.402344C24.3814 0.402344 24.5609 0.476714 24.6933 0.609095C24.8257 0.741475 24.9001 0.921021 24.9001 1.10824V16.6378C24.9001 16.8251 24.8257 17.0046 24.6933 17.137C24.5609 17.2694 24.3814 17.3437 24.1942 17.3437Z" fill="#2B3344"/>
<path d="M25.6063 17.3428H17.1356C16.9484 17.3428 16.7688 17.2684 16.6364 17.136C16.5041 17.0036 16.4297 16.8241 16.4297 16.6369C16.4297 16.4497 16.5041 16.2701 16.6364 16.1377C16.7688 16.0054 16.9484 15.931 17.1356 15.931H25.6063C25.7935 15.931 25.973 16.0054 26.1054 16.1377C26.2378 16.2701 26.3122 16.4497 26.3122 16.6369C26.3122 16.8241 26.2378 17.0036 26.1054 17.136C25.973 17.2684 25.7935 17.3428 25.6063 17.3428ZM19.9591 6.0485H11.4884C11.3012 6.0485 11.1217 5.97413 10.9893 5.84175C10.8569 5.70937 10.7826 5.52982 10.7826 5.34261C10.7826 5.1554 10.8569 4.97585 10.9893 4.84347C11.1217 4.71109 11.3012 4.63672 11.4884 4.63672H19.9591C20.1464 4.63672 20.3259 4.71109 20.4583 4.84347C20.5907 4.97585 20.665 5.1554 20.665 5.34261C20.665 5.52982 20.5907 5.70937 20.4583 5.84175C20.3259 5.97413 20.1464 6.0485 19.9591 6.0485ZM19.9591 8.87207H8.66488C8.47766 8.87207 8.29812 8.7977 8.16573 8.66532C8.03335 8.53294 7.95898 8.35339 7.95898 8.16618C7.95898 7.97896 8.03335 7.79942 8.16573 7.66704C8.29812 7.53465 8.47766 7.46028 8.66488 7.46028H19.9591C20.1464 7.46028 20.3259 7.53465 20.4583 7.66704C20.5907 7.79942 20.665 7.97896 20.665 8.16618C20.665 8.35339 20.5907 8.53294 20.4583 8.66532C20.3259 8.7977 20.1464 8.87207 19.9591 8.87207Z" fill="#2B3344"/>
</g>
<defs>
<clipPath id="clip0_249_1590">
<rect width="24" height="24" fill="white" transform="translate(0.900391 0.402344)"/>
</clipPath>
</defs>
</svg>
