<svg width="29" height="29" viewBox="0 0 29 29" fill="none" xmlns="http://www.w3.org/2000/svg">
<g clip-path="url(#clip0_249_1582)">
<path d="M9.26446 15.3589C10.0815 15.3589 10.8802 15.1167 11.5596 14.6627C12.239 14.2088 12.7685 13.5636 13.0811 12.8087C13.3938 12.0539 13.4756 11.2232 13.3162 10.4219C13.1568 9.62051 12.7634 8.88441 12.1856 8.30666C11.6079 7.7289 10.8718 7.33544 10.0704 7.17604C9.26908 7.01663 8.43845 7.09843 7.68358 7.4111C6.92871 7.72377 6.28351 8.25326 5.82956 8.93262C5.37562 9.61197 5.13332 10.4107 5.13331 11.2277C5.13454 12.323 5.57018 13.3731 6.34465 14.1476C7.11913 14.9221 8.16918 15.3577 9.26446 15.3589ZM9.26446 8.8466C9.73541 8.8466 10.1958 8.98625 10.5874 9.24789C10.9789 9.50954 11.2841 9.88142 11.4644 10.3165C11.6446 10.7516 11.6917 11.2304 11.5999 11.6923C11.508 12.1542 11.2812 12.5785 10.9482 12.9115C10.6152 13.2445 10.1909 13.4713 9.729 13.5631C9.2671 13.655 8.78833 13.6079 8.35323 13.4276C7.91814 13.2474 7.54625 12.9422 7.28461 12.5506C7.02296 12.1591 6.88331 11.6987 6.88331 11.2277C6.88404 10.5964 7.13514 9.99121 7.58153 9.54482C8.02793 9.09842 8.63316 8.84732 9.26446 8.8466ZM20.5363 10.6256C21.3534 10.6256 22.1521 10.3833 22.8315 9.92933C23.5108 9.47538 24.0403 8.83018 24.353 8.0753C24.6656 7.32043 24.7474 6.48979 24.588 5.68843C24.4286 4.88707 24.0352 4.15097 23.4574 3.57323C22.8796 2.99549 22.1435 2.60204 21.3422 2.44265C20.5408 2.28326 19.7102 2.36508 18.9553 2.67777C18.2004 2.99046 17.5552 3.51996 17.1013 4.19933C16.6474 4.8787 16.4051 5.67742 16.4051 6.49449C16.4064 7.58975 16.842 8.6398 17.6165 9.41426C18.391 10.1887 19.4411 10.6244 20.5363 10.6256ZM20.5363 4.11328C21.0073 4.11329 21.4676 4.25296 21.8592 4.51461C22.2508 4.77626 22.556 5.14814 22.7362 5.58324C22.9164 6.01834 22.9635 6.49711 22.8717 6.959C22.7798 7.4209 22.553 7.84517 22.22 8.17818C21.887 8.51118 21.4627 8.73796 21.0008 8.82983C20.5389 8.9217 20.0601 8.87455 19.625 8.69432C19.1899 8.5141 18.8181 8.2089 18.5564 7.81732C18.2948 7.42574 18.1551 6.96538 18.1551 6.49443C18.1558 5.86312 18.4069 5.25787 18.8533 4.81147C19.2998 4.36507 19.905 4.11398 20.5363 4.11328ZM22.4434 11.8647H18.6293C17.1983 11.869 15.8089 12.3468 14.678 13.2235C13.547 14.1003 12.738 15.3267 12.3772 16.7114C11.9797 16.636 11.5761 16.598 11.1715 16.5981H7.3574C5.64549 16.6 4.00425 17.2809 2.79375 18.4914C1.58324 19.7019 0.90233 21.3432 0.900391 23.0551L0.900391 25.567C0.900391 25.799 0.992578 26.0216 1.15667 26.1857C1.32077 26.3498 1.54333 26.442 1.77539 26.442H16.7536C16.9856 26.442 17.2082 26.3498 17.3723 26.1857C17.5364 26.0216 17.6286 25.799 17.6286 25.567V23.0551C17.6287 22.6025 17.5812 22.1513 17.4869 21.7087H28.0254C28.2575 21.7087 28.48 21.6165 28.6441 21.4524C28.8082 21.2883 28.9004 21.0657 28.9004 20.8337V18.3218C28.8985 16.6098 28.2175 14.9686 27.007 13.7581C25.7965 12.5476 24.1553 11.8667 22.4434 11.8647V11.8647ZM15.8786 24.692H2.65039V23.0551C2.65181 21.8072 3.14818 20.6108 4.03061 19.7283C4.91304 18.8459 6.10946 18.3495 7.3574 18.3481H11.1715C12.4195 18.3495 13.6159 18.8459 14.4983 19.7283C15.3808 20.6107 15.8772 21.8072 15.8786 23.0551V24.692ZM27.1504 19.9587H16.8363C16.1998 18.8002 15.2252 17.8632 14.0426 17.2727C14.5275 15.1782 16.433 13.6147 18.6293 13.6147H22.4434C23.6913 13.6162 24.8877 14.1125 25.7702 14.995C26.6526 15.8774 27.149 17.0738 27.1504 18.3218V19.9587Z" fill="black"/>
</g>
<defs>
<clipPath id="clip0_249_1582">
<rect width="28" height="28" fill="white" transform="translate(0.900391 0.402344)"/>
</clipPath>
</defs>
</svg>
