<svg width="80" height="80" viewBox="0 0 80 80" fill="none" xmlns="http://www.w3.org/2000/svg">
<path d="M55.3958 0H55.9649C56.4216 5.64177 54.2682 9.85729 51.651 12.91C49.0831 15.9417 45.5666 18.882 39.8792 18.4359C39.4998 12.8749 41.6567 8.97203 44.2704 5.92632C46.6943 3.08787 51.1381 0.562069 55.3958 0ZM72.6127 58.7222V58.8802C71.0143 63.7211 68.7344 67.8698 65.9522 71.72C63.4123 75.2154 60.2999 79.9192 54.7424 79.9192C49.9402 79.9192 46.7505 76.8313 41.8289 76.747C36.6227 76.6627 33.7597 79.329 28.9996 80H27.3767C23.8813 79.4941 21.0604 76.7259 19.0054 74.2318C12.9455 66.8616 8.26281 57.3416 7.3916 45.1587V41.5791C7.76046 32.86 11.9971 25.7709 17.6283 22.3352C20.6002 20.5085 24.6858 18.9523 29.235 19.6478C31.1847 19.9499 33.1765 20.6174 34.9224 21.2778C36.577 21.9137 38.6462 23.0413 40.6064 22.9816C41.9343 22.943 43.2551 22.2509 44.5936 21.7626C48.514 20.3469 52.3571 18.7239 57.4228 19.4862C63.5107 20.4066 67.8316 23.1116 70.5014 27.2849C65.3515 30.5625 61.28 35.5017 61.9755 43.9362C62.5938 51.5979 67.0482 56.0804 72.6127 58.7222Z" fill="#0B243F"/>
</svg>
