<svg width="116" height="116" viewBox="0 0 116 116" fill="none" xmlns="http://www.w3.org/2000/svg">
<path fill-rule="evenodd" clip-rule="evenodd" d="M28.5192 52.414H14.9839V56.4305H24.5838C24.1094 62.0628 19.4232 64.4648 15.0003 64.4648C9.34117 64.4648 4.40302 60.0124 4.40302 53.7715C4.40302 47.6919 9.11053 43.0103 15.0125 43.0103C19.5664 43.0103 22.2498 45.913 22.2498 45.913L25.0614 43.0007C25.0614 43.0007 21.4523 38.9824 14.8688 38.9824C6.48603 38.982 0 46.0575 0 53.6999C0 61.1883 6.10042 68.4908 15.0827 68.4908C22.982 68.4904 28.7644 63.0792 28.7644 55.077C28.7644 53.3886 28.5192 52.413 28.5192 52.413V52.414Z" fill="#0B243F"/>
<path fill-rule="evenodd" clip-rule="evenodd" d="M39.6627 53.229C42.3942 53.229 44.9824 55.4371 44.9824 58.9951C44.9824 62.4782 42.405 64.7488 39.6505 64.7488C36.6236 64.7488 34.2352 62.3251 34.2352 58.9679C34.2352 55.6823 36.5933 53.229 39.6627 53.229ZM39.6074 49.5039C34.0535 49.5039 30.0732 53.8457 30.0732 58.9103C30.0732 64.0488 33.9343 68.4717 39.6727 68.4717C44.8678 68.4717 49.1244 64.501 49.1244 59.0204C49.1244 52.7388 44.1731 49.5039 39.6074 49.5039Z" fill="#0B243F"/>
<path fill-rule="evenodd" clip-rule="evenodd" d="M60.3976 53.229C63.1295 53.229 65.7178 55.4371 65.7178 58.9951C65.7178 62.4782 63.1399 64.7488 60.3854 64.7488C57.359 64.7488 54.971 62.3251 54.971 58.9679C54.971 55.6823 57.3291 53.229 60.3976 53.229ZM60.3428 49.5039C54.7893 49.5039 50.8086 53.8457 50.8086 58.9103C50.8086 64.0488 54.6692 68.4717 60.408 68.4717C65.6031 68.4717 69.8593 64.501 69.8593 59.0204C69.8593 52.7388 64.9085 49.5039 60.3428 49.5039Z" fill="#0B243F"/>
<path fill-rule="evenodd" clip-rule="evenodd" d="M81.0506 53.2335C83.55 53.2335 86.1165 55.3673 86.1165 59.0118C86.1165 62.7165 83.555 64.7583 80.9953 64.7583C78.2779 64.7583 75.749 62.5516 75.749 59.0471C75.749 55.4058 78.3753 53.2335 81.0506 53.2335ZM80.6813 49.5156C75.5836 49.5156 71.5762 53.9807 71.5762 58.9923C71.5762 64.7003 76.2221 68.4862 80.5934 68.4862C83.2967 68.4862 84.734 67.4132 85.7957 66.182V68.0516C85.7957 71.3241 83.8083 73.2838 80.8095 73.2838C77.9127 73.2834 76.46 71.1297 75.9552 69.9072L72.3098 71.431C73.603 74.1647 76.2062 77.0162 80.8399 77.0162C85.9085 77.0162 89.7714 73.8235 89.7714 67.1281V50.0857H85.7957V51.6924C84.5732 50.3748 82.9007 49.5156 80.6813 49.5156Z" fill="#0B243F"/>
<path fill-rule="evenodd" clip-rule="evenodd" d="M107.618 53.1403C109.35 53.1403 110.597 54.061 111.127 55.1658L102.635 58.7155C102.269 55.9673 104.872 53.1403 107.618 53.1403ZM107.452 49.4922C102.643 49.4922 98.6055 53.3184 98.6055 58.9639C98.6055 64.9379 103.106 68.4808 107.914 68.4808C111.926 68.4808 114.389 66.2855 115.86 64.3184L112.58 62.1371C111.73 63.4575 110.307 64.7475 107.934 64.7475C105.268 64.7475 104.042 63.2876 103.282 61.8738L116 56.5967L115.339 55.0502C114.111 52.022 111.244 49.4926 107.452 49.4926L107.452 49.4922Z" fill="#0B243F"/>
<path fill-rule="evenodd" clip-rule="evenodd" d="M92.543 67.9175H96.7203V39.9629H92.543V67.9175Z" fill="#0B243F"/>
</svg>
