<svg width="80" height="80" viewBox="0 0 80 80" fill="none" xmlns="http://www.w3.org/2000/svg">
<g clip-path="url(#clip0_249_1543)">
<path d="M40 80C62.0914 80 80 62.0914 80 40C80 17.9086 62.0914 0 40 0C17.9086 0 0 17.9086 0 40C0 62.0914 17.9086 80 40 80Z" fill="#0B243F"/>
<path d="M35.9177 41.1828H39.9158L37.8039 37.7724L33.9211 43.9322H32.1555L36.8777 36.5419C36.9806 36.3944 37.1174 36.2737 37.2765 36.19C37.4357 36.1062 37.6126 36.0619 37.7925 36.0606C37.9723 36.0593 38.1499 36.1011 38.3102 36.1826C38.4706 36.2641 38.6091 36.3828 38.7141 36.5288L43.4494 43.9322H41.6838L40.852 42.5549H36.8067L35.9252 41.1828H35.9177ZM54.2714 42.5549V36.1352H52.7708V43.1871C52.7705 43.2851 52.7901 43.3821 52.8284 43.4723C52.8668 43.5625 52.923 43.6439 52.9938 43.7118C53.0648 43.7844 53.1496 43.8421 53.2434 43.8813C53.3371 43.9205 53.4378 43.9405 53.5394 43.94H60.3605L61.2499 42.5627H54.2636L54.2714 42.5549ZM29.4613 41.4085C30.9174 41.4085 32.0978 40.228 32.0978 38.7719C32.0978 37.3158 30.9174 36.1353 29.4613 36.1353H22.9027V43.9322H24.4006V37.5152H29.3695C29.7042 37.5152 30.0252 37.6481 30.2618 37.8848C30.4985 38.1214 30.6314 38.4424 30.6314 38.7771C30.6314 39.1117 30.4985 39.4327 30.2618 39.6693C30.0252 39.906 29.7042 40.0389 29.3695 40.0389H25.1431L29.6188 43.9322H31.7936L28.787 41.4085H29.4613ZM13.6891 43.9322H18.2199C20.3722 43.8764 22.0717 42.0863 22.0159 39.9339C21.9622 37.8602 20.2938 36.1918 18.2199 36.1378H13.6891C11.5367 36.0821 9.74657 37.7816 9.69079 39.9339C9.63501 42.0863 11.3345 43.8764 13.4869 43.9322C13.5541 43.9339 13.6216 43.9339 13.6891 43.9322ZM18.1173 42.5602H13.7888C12.3956 42.5152 11.3027 41.3494 11.3477 39.9564C11.3906 38.6264 12.4588 37.5583 13.7888 37.5153H18.1175C19.5106 37.4703 20.6764 38.5633 20.7213 39.9564C20.7663 41.3496 19.6733 42.5153 18.2802 42.5602C18.2259 42.5619 18.1716 42.5619 18.1173 42.5602ZM46.5794 43.9322H51.2045L52.0808 42.5602H46.6817C45.2886 42.6052 44.1228 41.5122 44.078 40.1191C44.033 38.726 45.1259 37.5602 46.5191 37.5153C46.5733 37.5136 46.6275 37.5136 46.6817 37.5153H51.0761L51.9628 36.138H46.5794C44.427 36.0822 42.637 37.7818 42.5811 39.9341C42.5253 42.0864 44.2249 43.8766 46.3772 43.9324C46.4445 43.9339 46.512 43.9339 46.5794 43.9322ZM64.9095 42.5602C64.3599 42.5604 63.8252 42.3811 63.3867 42.0497C62.9482 41.7182 62.6299 41.2527 62.4802 40.7238H68.8867L69.7683 39.3491H62.4803C62.6296 38.82 62.9478 38.3542 63.3864 38.0226C63.825 37.6911 64.3599 37.512 64.9097 37.5127H69.3066L70.1855 36.1353H64.8074C62.655 36.1911 60.9555 37.9813 61.0113 40.1336C61.065 42.2074 62.7334 43.8758 64.8074 43.9297H69.4325L70.3114 42.5577H64.907L64.9095 42.5602Z" fill="white"/>
</g>
<defs>
<clipPath id="clip0_249_1543">
<rect width="80" height="80" fill="white"/>
</clipPath>
</defs>
</svg>
