<svg width="88" height="88" viewBox="0 0 88 88" fill="none" xmlns="http://www.w3.org/2000/svg">
<path fill-rule="evenodd" clip-rule="evenodd" d="M32.2266 39.2659L34.9262 47.9522C34.1127 48.2425 33.1879 48.4146 32.204 48.4146C31.1941 48.4146 30.245 48.239 29.4297 47.9279L32.1745 39.2659H32.2266ZM57.3104 39.9004C57.3086 42.5913 55.2783 43.4379 52.7334 43.4379H50.823V36.4551H52.7334C55.2783 36.4551 57.3104 37.3034 57.3104 39.9004Z" fill="#0B243F"/>
<path fill-rule="evenodd" clip-rule="evenodd" d="M0 22.2344V65.7685H44.4746L88 22.2344H0ZM53.625 49.3954H50.8246L50.7933 57.0735L37.6361 57.0613L36.72 53.7342C35.3624 54.1792 33.8309 54.4261 32.2039 54.4261C30.5351 54.4261 28.9619 54.1653 27.5782 53.6925L26.2623 57.0613L18.9302 57.0839L19.2587 55.3891C19.1544 55.4812 19.0536 55.5734 18.9406 55.662C16.9815 57.2386 14.5149 57.9687 11.4746 58.0226L10.6888 58.0296C7.19659 58.0296 4.12326 57.2021 1.22898 55.556L3.90424 50.2454C6.80373 51.9577 8.622 52.3436 11.0765 52.2914C12.3489 52.2671 13.2668 52.0342 13.8665 51.4153C14.2298 51.0364 14.4192 50.567 14.4384 50.0629C14.4627 48.6844 12.4984 48.0361 10.0943 47.2903C8.1457 46.6871 5.93284 45.8649 4.20322 44.5977C2.1555 43.0906 1.18205 41.2062 1.23072 38.5484C1.25853 36.6171 1.97472 34.8684 3.30278 33.4951C5.20623 31.5274 8.27781 30.3314 11.9665 30.3314H11.9856C15.1493 30.3349 19.0066 31.2318 21.7966 32.652L18.7876 37.8948C15.7282 36.4172 14.1898 36.2764 12.4497 36.1825C9.85272 36.0452 8.54725 36.9717 8.52813 37.973C8.50379 39.1916 10.9809 40.2936 13.3154 41.0446C16.8494 42.1675 21.3429 43.666 22.0296 48.0117L28.4891 30.9346H35.9934L43.562 51.3823L43.5324 30.9416H52.2239C60.5017 30.9416 64.3903 33.7437 64.3921 40.1754C64.3921 45.9501 60.3922 49.3954 53.625 49.3954Z" fill="#0B243F"/>
</svg>
