<svg width="68" height="68" viewBox="0 0 68 68" fill="none" xmlns="http://www.w3.org/2000/svg">
<g clip-path="url(#clip0_249_1547)">
<path d="M24.8929 35.9922C20.9699 35.9922 17.7784 39.1837 17.7784 43.1067V60.8854C17.7784 64.8084 20.9699 67.9999 24.8929 67.9999C28.8159 68 32.0074 64.8085 32.0074 60.8855V43.1067C32.0074 39.1837 28.8159 35.9922 24.8929 35.9922ZM13.7939 35.9922H6.90621C3.1083 35.9922 0.0185547 39.0821 0.0185547 42.8798C0.0185547 46.6777 3.10844 49.7675 6.90621 49.7675C10.704 49.7675 13.7939 46.6776 13.7939 42.8798V35.9922Z" fill="#0B243F"/>
<path d="M0 24.8939C0 28.8169 3.19148 32.0084 7.1145 32.0084H24.8932C28.8163 32.0084 32.0078 28.8169 32.0078 24.8939C32.0078 20.9708 28.8163 17.7794 24.8933 17.7794H7.1145C3.19148 17.7792 0 20.9708 0 24.8939ZM25.1202 13.7948H32.0078V6.90719C32.0078 3.10928 28.9179 0.0195312 25.1202 0.0195312C21.3223 0.0195312 18.2325 3.10941 18.2325 6.90719C18.2325 10.705 21.3223 13.7948 25.1202 13.7948Z" fill="#0B243F"/>
<path d="M43.1067 32.0078C47.0297 32.0078 50.2212 28.8163 50.2212 24.8933V7.1145C50.2213 3.19148 47.0297 0 43.1067 0C39.1837 0 35.9922 3.19148 35.9922 7.1145V24.8932C35.9922 28.8163 39.1837 32.0078 43.1067 32.0078ZM54.2057 32.0078H61.0934C64.8913 32.0078 67.981 28.9179 67.981 25.1202C67.981 21.3222 64.8911 18.2325 61.0934 18.2325C57.2956 18.2325 54.2057 21.3224 54.2057 25.1202V32.0078Z" fill="#0B243F"/>
<path d="M68 43.1067C68 39.1837 64.8085 35.9922 60.8855 35.9922H43.1067C39.1837 35.9922 35.9922 39.1837 35.9922 43.1067C35.9922 47.0297 39.1837 50.2212 43.1067 50.2212H60.8854C64.8085 50.2213 68 47.0297 68 43.1067ZM42.8798 54.2057H35.9922V61.0934C35.9922 64.8913 39.0821 67.981 42.8798 67.981C46.6777 67.981 49.7675 64.8911 49.7675 61.0934C49.7675 57.2956 46.6777 54.2057 42.8798 54.2057Z" fill="#0B243F"/>
</g>
<defs>
<clipPath id="clip0_249_1547">
<rect width="68" height="68" fill="white"/>
</clipPath>
</defs>
</svg>
